<?xml version="1.0" encoding="utf-8"?>
<!-- Generator: Adobe Illustrator 21.0.0, SVG Export Plug-In . SVG Version: 6.00 Build 0)  -->
<svg version="1.1" id="Layer_1" xmlns="http://www.w3.org/2000/svg" xmlns:xlink="http://www.w3.org/1999/xlink" x="0px" y="0px"
	 viewBox="0 0 504.1 504.1" style="enable-background:new 0 0 504.1 504.1;" xml:space="preserve">
<style type="text/css">
	.st0{fill:#FFFFFF;}
</style>
<circle cx="252.1" cy="252.1" r="252.1"/>
<path d="M463.2,114.6L240.2,345.4l0.4,24.8h10.2l241.4-194.6C485.2,154,475.4,133.1,463.2,114.6z"/>
<path class="st0" d="M499.4,103.6l-44.5-44.1c-5.9-5.9-15.8-5.9-22.1,0L242.6,256l-82.3-81.1c-5.9-5.9-15.8-5.9-22.1,0l-39.4,39
	c-5.9,5.9-5.9,15.8,0,21.7l131.5,130.4c3.5,3.5,8.3,4.7,13,4.3c4.7,0.4,9.5-0.8,13-4.3l243-240.2
	C505.3,119.3,505.3,109.5,499.4,103.6z"/>
<path class="st0" d="M256.4,365.9l243-240.2c5.9-5.9,5.9-15.8,0-21.7l-7.1-6.7L243,342.3L105.2,208l-5.9,5.9
	c-5.9,5.9-5.9,15.8,0,21.7l131.5,130.4c3.5,3.5,8.3,4.7,13,4.3C248.1,370.6,252.8,369.4,256.4,365.9z"/>
</svg>
