<?xml version="1.0" encoding="utf-8"?>
<!-- Generator: Adobe Illustrator 21.0.0, SVG Export Plug-In . SVG Version: 6.00 Build 0)  -->
<svg version="1.1" id="Capa_1" xmlns="http://www.w3.org/2000/svg" xmlns:xlink="http://www.w3.org/1999/xlink" x="0px" y="0px"
	 viewBox="0 0 92.8 92.8" style="enable-background:new 0 0 92.8 92.8;" xml:space="preserve">
<style type="text/css">
	.st0{fill:#FFFFFF;}
</style>
<g>
	<g>
		<path class="st0" d="M89.8,1.8H3c-1.7,0-3,1.3-3,3v13.3c0,1.7,1.3,3,3,3h86.8c1.7,0,3-1.3,3-3V4.8C92.8,3.1,91.5,1.8,89.8,1.8z"/>
		<path class="st0" d="M89.8,36.8H3c-1.7,0-3,1.3-3,3v13.3c0,1.7,1.3,3,3,3h86.8c1.7,0,3-1.3,3-3V39.8
			C92.8,38.1,91.5,36.8,89.8,36.8z"/>
		<path class="st0" d="M89.8,71.8H3c-1.7,0-3,1.3-3,3v13.3c0,1.7,1.3,3,3,3h86.8c1.7,0,3-1.3,3-3V74.8
			C92.8,73.1,91.5,71.8,89.8,71.8z"/>
	</g>
</g>
</svg>
