<?xml version="1.0" encoding="utf-8"?>
<!-- Generator: Adobe Illustrator 21.0.0, SVG Export Plug-In . SVG Version: 6.00 Build 0)  -->
<svg version="1.1" id="Layer_1" xmlns="http://www.w3.org/2000/svg" xmlns:xlink="http://www.w3.org/1999/xlink" x="0px" y="0px"
	 viewBox="0 0 864 864" style="enable-background:new 0 0 864 864;" xml:space="preserve">
<style type="text/css">
	.st0{fill:#F9F8F7;}
	.st1{fill:#FFFFFF;}
</style>
<path d="M800.7,107.9c-1-1.5-1.7-3.6-4.2-2.4c-0.2,0.1-0.5,0-0.8-0.1c-2.2-0.5-4.4-1.1-6.6-1.5c-5.7-1-11.4-1.7-17-3
	c-6.8-1.5-13.7-3.1-20.4-5.3c-4.7-1.5-9.2-0.6-13.9-0.5c-3.4,0-6.7,0.5-10.1,0.7c-1.2,0.1-2.4-0.4-3.5-0.3c-2.2,0.1-4.3,0.6-6.4,0.7
	c-3.5,0.1-7.1,0-10.6,0c-3.1,0-6.2,0.1-9.3-0.1c-4.8-0.3-9.7-0.9-14.5-1.1c-4.1-0.1-8.2,0.3-12.3,0.3c-5.4,0.1-10.9,0.1-16.3,0
	c-3.3,0-6.6-0.4-9.9-0.3c-6.3,0.2-12.6,0.9-18.9,1c-8.2,0.2-16.3,0-24.5,0c-4.1,0-8.2,0-12.2,0c-6.7,0.1-13.4,0.2-20.1,0.4
	c-7.5,0.2-15,0.4-22.5,0.6c-3.3,0.1-6.6,0.4-9.9,0.6c-3.7,0.2-7.3,0.4-11,0.6c-3.7,0.1-7.5,0.1-11.2,0.2c-4.6,0.2-9.2,0.6-13.8,0.8
	c-2.6,0.1-5.2-0.1-7.8,0.1c-6.4,0.4-12.8,1.2-19.3,1.5c-6,0.3-12,0-18,0.1c-3.9,0-7.8,0.3-11.7,0.4c-2.5,0.1-5,0-7.5,0
	c-5.7,0-11.4-0.1-17.1,0.1c-5.9,0.1-11.9,0.5-17.8,0.6c-3,0.1-6.1-0.3-9.1-0.3c-1.5,0-3,0.3-4.5,0.4c-3.1,0.2-6.1,0.3-9.2,0.5
	c-4.2,0.3-8.4,0.9-12.7,1.1c-4.6,0.2-9.1,0-13.7,0.1c-6,0.2-12.1,0.5-18.1,0.7c-2.5,0.1-4.9,0-7.4,0c-5.4,0.1-10.9,0.3-16.3,0.4
	c-4.2,0-8.3-0.3-12.5-0.3c-4.8,0-9.6,0.2-14.4,0.2c-2.2,0-4.4-0.2-6.6-0.2c-2.1,0-4.3,0.4-6.4,0.3c-3.2,0-6.3-0.3-9.5-0.3
	c-2.2,0-4.4,0.4-6.6,0.3c-4.9-0.1-9.8-0.5-14.8-0.5c-5.5,0-11,0.4-16.5,0.5c-4.1,0.1-8.1,0-12.2,0c-2.3,0-4.6,0-6.9,0.1
	c-3.4,0.1-6.9,0.4-10.3,0.4c-3.3,0-6.7-0.3-10-0.4c-4.2-0.1-8.3-0.1-12.5,0c-2.1,0-4.3,0.3-6.4,0.3c-2.5,0.1-4.9-0.1-7.4,0
	c-2.9,0.1-5.8,0.4-8.7,0.4c-3.9,0.1-7.8-0.1-11.8,0c-5.9,0.1-11.9,0.2-17.8,0.5c-1.2,0.1-3.3,1-3.4,1.8c-0.5,2.9-0.4,5.9-0.6,8.9
	c0,0.7,0.1,1.5,0,2.2c-0.3,2.9-0.7,5.8-0.8,8.6c-0.1,2.4-0.3,4.8,0.7,7.2c0.8,2.1,0.9,4.5,1.2,6.7c0,0.2-0.3,0.4-0.4,0.6
	c-0.1,0.3-0.3,0.7-0.1,0.9c1.4,2.6,4.5,3.2,6.5,3.1c4.3-0.2,8.4,0.9,12.7,1.1c1.2,0.1,1.4,0.9,0.6,1.8c-0.3,0.3-0.4,0.8-0.8,1
	c-1.5,0.8-0.6,2.8-1.5,3.5c-1.5,1.4-1.1,3.1-1.1,4.5c-0.1,2.7,0.8,5.4,1,8.1c0.3,3.3,0.3,6.6,0.4,9.9c0,0.5,0,0.9,0,1.4
	c0.4,2.6,1,5.1,1.1,7.7c0.2,3.5,0,6.9,0.1,10.4c0,0.8,0.5,1.6,0.5,2.4c0,1.2-0.4,2.3-0.4,3.5c0,1.3,0.5,2.5,0.6,3.7
	c0.4,4-0.4,8,0,12.1c0.3,3.4,0.3,6.7,0.4,10.1c0.1,2.5-0.3,5.1,0.1,7.5c0.3,1.6,0.5,2.9-0.1,4.4c-0.1,0.2,0,0.4,0,0.6
	c0.3,1.2,0.7,2.5,0.7,3.7c0.2,4.1,0.3,8.1,0.4,12.2c0.1,1.4,0.5,2.8,0.5,4.2c0,2.1-0.4,4.1-0.5,6.2c-0.1,2.6,0.2,5.2,0.2,7.8
	c0,7.7-0.1,15.4-0.2,23.2c0,0.4,0.2,0.8,0.1,1.1c-0.3,0.9-0.4,2-1,2.5c-1.9,1.6-4,2.9-5.9,4.5c-1.4,1.2-3.3,2.5-3.8,4.1
	c-0.9,2.6-2.7,4.7-3.3,7.6c-0.5,2.7-0.4,5.1,0,8.1c-0.6,0.2-1.5,0.5-2.4,0.5c-2.5,0.1-5-0.3-7.4,0.1c-1.8,0.3-3.8,1.1-5,2.4
	c-2.1,2.2-2.6,5.3-2.7,8.4c-0.1,2.2,0.7,5-1.5,5.9c-0.3,1.5-0.5,2.3-0.7,3.2c0.3-0.1,0.4-0.3,0.4-0.5c0,0,0.1,0,0.2-0.1
	c0.2,0.8,0.3,1.6,0.5,2.4c0.3,1.6,2,3.1,3.4,2.4c2.3-1.1,4.6-1.1,7-1.1c0.1,0,0.1,0,0.2,0c2.7,0,5.3,0,8.1,0
	c-0.2,1.1-0.2,1.9-0.4,2.6c-0.6,1.9,0.2,4-1.2,6c-0.8,1.2-0.1,3.3-0.2,5c-0.1,0.6-0.6,1.5-1.1,1.8c-3.7,2.1-7.3,4.2-11.1,6.2
	c-3.8,2-7.7,3.9-11.6,5.7c-4.5,2.1-9,4.2-13.6,6.3c-2.3,1-4.6,1.8-6.9,2.6c-0.3,2.8,0.2,5.5-1,8.1c-0.5,1.1,0.4,2.8,0.4,4.2
	c0.1,1.4,0.4,3.1-0.2,4.3s0.2,2.1,0,2.5c-1.4,2.7-0.3,5.4-0.5,8.1c-0.2,3.1-0.1,6.2-0.2,9.2c0,0.9,0,1.8-1.6,1.9
	c-2.4,0.1-4.8,1.7-5.2,3.7c-0.7,3.8-0.5,7.8-0.6,11.8c-0.1,2.4,0.1,4.7,0,7.1c-0.2,2.8-0.5,5.5-0.8,8.2c-0.3,2.4,0.2,4.3,2.3,5.7
	c0.6,0.4,1.2,0.7,1.7,1.2c0.3,0.3,0.7,0.7,0.8,1.2c0.4,2,0.8,4.1,1.2,6.1c0.2,0.9,0.6,1.7,1,2.5c0.6,1.2,1.5,2.3,1.7,3.5
	c0.2,1.5-0.3,3.1-0.3,4.7c0,2.3-0.8,4.8,1.5,6.7c0.6,0.5,0.9,2.1,0.7,3c-0.6,2.1-2.8,3.7-2.2,6.2c0,0.1-0.2,0.2-0.2,0.3
	c-0.3,0.7-0.9,1.5-0.8,2.1c0.4,5.8-0.4,11.6,0.6,17.5c0.9,5.5,0.5,11.3,0.5,17c0,1.1,0,2.7,0.2,3.2c1.2,2.3,0.6,4.7,0.8,7.1
	c0.3,3,0.1,6.1,0.3,9.1c0,0.7,0.6,1.5,0.6,2.2c0,1.2-0.5,2.3-0.5,3.5c0,1.2,0.9,3.1,0.6,3.3c-1.8,1.2,1.4,2.6-0.4,3.5
	c1.5,3,0.8,6.3,0.9,9.4c0.1,2.1,0,4.3,0,6.4c0,1.2,0.1,2.3,0.2,3.5c0.1,2,0.4,3.9,0.4,5.9c0,1.2-0.6,2.4-0.5,3.5
	c0.2,2.7,0.9,5.4,1.1,8.1c0.4,5.3,0.5,10.6,0.9,15.8c0.1,2,1.1,4.1,0.7,6c-0.2,1.1,0.5,2,0.2,2.6c-1,1.7-0.2,3,0.2,4.5
	c0.2,0.6,0.4,1.1,0.4,1.7c0.1,3.7-0.1,7.3,0.8,11c1.1,4.9-0.4,10.1,1.6,15c0.3,0.8,0.4,2-0.8,3c-1.9,1.6-2.1,6.4-0.9,8.5
	c-0.8,0.3-1.6,0.7-2.4,0.9c-4,1.1-7.9,2.1-11.9,3.2c-1.4,0.4-2.3,1.3-2,2.8c0.3,1.8,1.1,3.5,1.1,5.2c0,3.5,0.8,7,0.1,10.5
	c0,0.2,0.1,0.4,0.1,0.6c0.2,0.9,0.8,2.1,0.5,2.7c-1,1.7-0.4,3.5-0.5,5.2c-0.4,4.2-0.2,8.5-0.3,12.7c-0.1,3.4,2.2,6,5.7,6.3
	c0.3,0,0.5,0.1,0.8,0.1c2.9,0.8,5.8,1.5,8.7,2.3c2,0.5,3.9,1.3,5,3.2c2.1,3.8,4.1,7.8,8.8,9c0.9,0.2,1.7,0.7,2.6,0.9
	c3.8,0.9,7.6,2.1,11.2-0.6c0.3-0.2,0.6-0.4,0.9-0.4c2.9-0.1,5.3-1.7,7.5-3.3c1.7-1.3,3.2-2.9,3.4-5.4c0-0.7,0.8-1.6,1.5-1.9
	c2.2-1.1,4.4-2,6.7-3c2.8-1.3,5.6-2.4,8.2-3.9c4.2-2.2,8.1-4.9,12.8-6.3c2.9-0.9,5.6-2.3,8.4-3.5c2.9-1.3,5.7-2.6,8.5-4
	c2.2-1.2,4.3-2.7,6.5-3.9c1.1-0.6,2.4-1.2,3.6-1.2c3.6,0,7.2-1.5,10.8,0c1,0.4,1.8-0.3,2.8-0.6c1.5-0.5,3.3-0.3,4.9-0.2
	c3.7,0.3,7.4,0.9,11.1,1.2c2.7,0.2,5.4-0.1,8.1,0.1c2.9,0.1,5.8,0.4,8.7,0.8c3.3,0.4,6.6,1.2,9.9,1.6c4.5,0.5,9.1,0.8,13.7,1.3
	c3.1,0.3,6.1,0.9,9.2,1.1c4.4,0.3,8.8,0.3,13.2,0.5c0.6,0,1.3,0.3,1.9,0.4c0.8,0.2,1.6,0.7,2.4,0.7c2.6,0.1,5.2-0.1,7.8,0.1
	c4.3,0.3,8.6,0.8,13,1.1c4.5,0.4,9.1,0.8,13.6,1.2c2.2,0.2,4.5,0.3,6.7,0.4c4.7,0.4,9.3,0.8,14,1.1c3.7,0.3,7.4,0.6,11.1,1
	c0.6,0.1,1.2,0.1,1.7,0.3c0.8,0.2,1.7,0.1,1.4,1.7c-0.4,1.9-0.1,3.9-0.2,5.8c-0.1,3.2-0.5,6.4-0.4,9.6c0.1,2,0.7,4.1,1.2,6.1
	c0.1,0.3,0.6,0.5,0.9,0.7c2.8,2.3,6.3,2.4,9.6,2.8c4.2,0.5,8.3,1,12.5,1.6c0.7,0.1,1.5,0.4,2.1,0.1c3.5-1.4,7-2.6,10-5
	c0.7-0.5,1.7-0.6,2.5-1c0.2,0.9,0.6,1.7,0.6,2.6c0,2.1,1.1,3.3,2.9,3.7c2.6,0.6,5.2,1,7.9,1.4c2.6,0.4,5.3,0.7,7.9,1
	c1,0.1,2-0.1,3,0c3.1,0.1,6.2,0.7,9.2,0.4c3.1-0.4,5.5-2.7,7.4-5.2c0.4-0.5,0.8-1,1.3-1.5c0.2,0,0.4,0.1,0.6,0.1
	c0.3,2,0.5,4,0.8,6.2c0.9,0.2,2.1,0.7,3.3,0.8c3.5,0.4,7.1,0.6,10.6,0.9c3.3,0.3,6.5,0.6,9.8,0.7c1.1,0,2.3-0.3,3.2-0.8
	c1.8-1,4-1.8,4.9-3.4c1.5-2.7,4.1-4.2,5.9-6.4c2.1-2.6,5-4.5,7.6-6.6c1.1-0.9,2.8-1.2,3.4-2.2c1.6-2.7,3.7-2.7,6.4-2.2
	c2,0.4,4.1,0.2,6.2,0.2c3-0.1,5.9-0.4,8.9-0.3c5.2,0.1,10.5,0.4,15.7,0.6c1.7,0.1,3.4-0.5,5-0.2c7.1,1.4,14.3,1.6,21.5,1.9
	c5,0.3,9.9,0.9,14.9,1.1c8.7,0.5,17.5,0.8,26.2,1.2c0.7,0,1.3,0.1,2,0.1c3.5,0.2,7.1,0.4,10.6,0.6c4.5,0.2,8.9,0.4,13.4,0.6
	c2.9,0.2,5.8,0.5,8.7,0.6c2.2,0.1,4.4-0.4,6.6-0.3c4.1,0.1,8.2,0.5,12.2,0.7c1.2,0.1,2.3,0.2,3.4,0.3c0.6,3.2,1.3,6,1.5,8.9
	c0.2,3.2,0,6.5,0.1,9.8c0,2.5-0.7,5.2,2,6.8c0.1,0.1,0.1,0.2,0.2,0.3c1.2,0.9,2.3,2,3.6,2.7c1,0.6,2.3,0.5,3.3,1
	c3.5,1.5,7,2.2,10.5,0c1.1-0.7,2.5-0.8,3.2,1.2c0.4,1.2,1.6,2.2,2.3,3.3c2.1,3.5,5,5.9,9,6.9c1.1,0.3,2.1,1.1,3.2,1.4
	c2.4,0.7,4.7,1.6,7.3,1.5c2.8-0.1,5.1-1.1,7.3-2.5c2.7-1.6,5.6-3,7.8-5.1c1.8-1.7,3.8-3.6,4.2-6.5c0.2-1.2,0.5-2.6,1.4-3.4
	c1.7-1.5,3.7-2.6,5.6-3.7c3.1-1.9,6.3-3.6,9.3-5.6c1.8-1.1,3.4-2.6,5.2-3.7c2.1-1.2,4.6-1.8,6.7-3c2.9-1.7,5.5-3.8,8.2-5.7
	c2.8-1.9,5.6-3.8,8.4-5.6c2.7-1.7,5.6-3.3,8.3-5c2.2-1.3,4.3-2.7,6.4-4c0.4-0.2,1-0.2,1.4,0c0.9,0.5,1.7,1.2,2.6,1.6
	c4.2,1.8,8.6,1.5,13,1.3c3.6-0.2,10.8-4.2,13.2-8.6c1.1-2,0.4-4.1,1.9-6c1.2-1.5,0-4.2-1.5-6c-0.2-0.3-0.3-1.1-0.1-1.3
	c1.6-1.4,3.2-2.8,4.8-4.2c0.2-0.2,0.5-0.5,0.6-0.8c0.6-1.4-1.3-2.8,0-4.2c0,0-0.1-0.3-0.2-0.5c-0.9-1.3-1.1-4.4-0.4-5.6
	c0.3-0.5,0.6-1.2,0.6-1.8c0-8.8,0-17.6,0-26.4c0-17.5,0-35.1,0.1-52.6c0-1.5-1.5-3.1-0.1-4.7c0,0-0.3-0.3-0.3-0.5c0-0.4,0-0.8,0-1.2
	c0-0.3,0.3-0.5,0.2-0.7c-0.3-2-0.9-3.9-1-5.9c-0.1-2.8,0.1-5.5,0.1-8.3c0-3.9,0-7.8,0-11.6c0-1.9,0.2-3.7,0.1-5.6
	c-0.1-2.7-0.3-5.4-0.3-8.2c0-4.3,0.3-8.7,0.3-13c0-5.5-0.3-11-0.3-16.5c-0.1-6.7,0-13.4,0-20.1c0-2.3,0.3-4.7,0.3-7
	c0-2.7-0.2-5.4-0.3-8.2c0-1.5,0-3,0-4.5c0-1.5-0.1-3.1,0-4.6c0.1-1.3-0.9-2.5-0.1-3.8c0.1-0.1-0.3-0.4-0.4-0.6c-0.1-0.3-0.4-1-0.3-1
	c1.2-0.6,1-1.2,0-1.8c0,0,0.2-0.5,0.3-0.8c0.1-0.3,0.3-0.6,0.2-0.8c-0.8-1.4-0.9-1.4,0.1-2.3c-1.1-1.3-1.2-3.5-0.4-4.5
	c-1.1-5.8-0.4-11.2-0.7-16.7c-0.2,0.3-0.3,0.5-0.5,0.6c0,0-0.1,0-0.7,0c0-3.1,0-6.2,0-9.3c0-0.4-0.1-0.9-0.2-1.3
	c-0.1-0.5-0.2-1-0.2-1.5c0-1.1,0.2-2.2,0.1-3.3c-0.1-2.1-0.5-4.2-0.3-6.3c0-0.5,0.8-0.9,0-1.6c-0.2-0.1-0.3-0.5-0.2-0.7
	c0.2-1.1,0.6-2.2,0.6-3.3c0-1-0.9-2.2-0.6-3.1c0.5-1.4-0.1-2.6-0.1-3.8c0-1.2-0.3-2.5-0.3-3.7c0-1.3,0.3-2.7,0.5-3.8
	c-0.1-1.4-0.3-2.7-0.3-3.9c-0.1-2.8-0.1-5.7-0.1-8.5c0-2.7-0.1-5.4-0.1-8c0-2.1,0.3-4.1,0.3-6.2c0-4-0.3-8-0.3-12.1
	c-0.1-2.6,0-5.2,0-7.8c0-2.5-0.1-5.1,0-7.6c0.1-2.3-0.5-4.6-0.1-6.9c0.1-0.6-0.6-1.3-0.6-2c-0.1-0.6,0.3-1.2,0.3-1.8
	c0.1-1.1,0.3-2.2,0.2-3.2c0-0.6-0.6-1.2-0.6-1.8c0-1.1,1.7-2.2,0-3.3c-0.1,0,0-0.4,0.1-0.6c1.2-1.3,1-2.6,0.1-3.9
	c-0.1-0.2-0.2-0.7,0-0.9c0.9-1.4,1.1-2.7-0.1-4.1c-0.1-0.1,0-0.5,0.1-0.7c0.2-0.5,0.6-1,0.6-1.4c-0.2-1.6-0.6-3.1-0.7-4.7
	c0-0.6,0.7-1.3,0.7-2c-0.1-0.9-0.7-1.8-0.8-2.8c-0.1-1.4,0.2-2.8,0.3-4.4c0-0.1-0.5-0.5-0.5-0.9c0-0.4,0.5-0.9,0.8-1.3
	c-0.1-0.4-0.5-1-0.5-1.6c-0.1-4-0.1-8-0.1-12c0-2.7,0.1-5.4,0-8.1c-0.1-4.3-0.3-8.6-0.4-12.9c-0.1-5.7,0-11.5,0-17.2
	c0-0.6-0.5-1.2-0.6-1.9c-0.1-0.3,0-0.6,0.1-0.9c0.2-0.6,0.6-1.1,0.5-1.7c-0.1-8.2,0.6-16.4-0.8-24.6c0-0.2,0-0.4,0-0.6
	c0.1-1.7-0.8-3.2,0.4-5c0.6-0.8-0.3-2.5-0.4-3.8c-0.1-2,0.6-3.8,0.7-5.7c0.2-5.9,0.1-11.7,0.1-17.6c0-1.9,0-3.9,0-5.8
	c0.1-2.6,0.6-5.2,0.2-7.7c-0.4-2.2,0.9-4.1,0.3-6.3c-0.3-1,0.6-2.3,0.6-3.4c0.5-7.3,0.8-14.7,1.2-22c0.1-2-0.3-3.9,0-5.9
	c0.2-1.8,0-3.7,0-5.3c1.7-1.1,4-1.9,4.5-3.3c0.6-1.6,0.8-3.6,1.4-5.4c0.5-1.6-0.2-3.7,0.6-5.1c1-1.8,0.4-3.4,0.6-5.1
	c0.2-1.8,0.2-3.7,0.4-5.5c0.2-1.6,0.5-3.2,0.8-4.8C800.8,108.5,800.8,108.1,800.7,107.9z M137,555.1c-0.5,1.9-0.6,3.9-0.7,5.8
	c0,1.4,0.4,2.8,0.5,4.2c0,0.9-0.5,1.7-0.5,2.6c0,8.4,0,16.8,0,25.2c0,3.3,0,6.7,0,10c0,1.8,0.2,3.6,0.7,5.3c0.3,1.1-0.4,2.4-0.4,3.6
	c0,1,0.3,1.9,0.4,2.9c0.1,0.3,0.2,0.7,0.1,1c-0.2,1.1-0.9,2.3-0.6,3.2c0.3,1,0.8,1.7,0.2,3c-0.4,0.8,0.4,2,0.3,3
	c0,1.3-0.3,2.6-0.5,3.9c0,0.3,0.1,0.6,0.1,0.8c0.1,0.7,0.5,1.4,0.4,2c-0.3,2-0.6,3.9-0.3,6.1c0.5,2.9-0.5,6-0.4,9
	c0,2-0.2,3.9-0.1,5.9c0.1,1.3-0.4,1.9-1.6,2.4c-2.5,0.9-5,1.8-7.5,2.7c-0.5,0.2-1.1,0.2-1.5-0.1c-0.8-0.5-1.6-1.2-2.8-2.2
	c0.1-2,0.3-4.6,0.6-7.1c0.3-2.4,0.8-4.8,1.2-7.2c0.4-3.1,0.8-6.3,1.2-9.4c0.4-2.9,1.1-5.8,1.5-8.7c0.1-0.5-0.6-1.3-0.4-1.6
	c1.8-2.9,0.4-6.3,1.3-9.3c1.3-4.5,1.2-9.1,1.3-13.8c0-0.3,0.6-0.7,0.6-1c0-0.5-0.1-1-0.4-1.5c-0.2-0.4-0.6-0.8-1-1.3
	c0.6-0.2,1.1-0.4,1.6-0.7c0-2.4-0.1-4.9,0-7.4c0.1-2.2,0.5-4.4,0.7-6.6c0.3-3.4,0.4-6.9,0.7-10.4c0.2-2.2,0.7-4.5,0.9-6.7
	c0.1-1-0.5-2-0.5-3.1c0-0.7,0.5-1.3,0.6-2c0.2-1.8,0.2-3.5,0.4-5.3c0.3-3.1,0.8-6.2,1.2-9.3c0.3-2.3,0.5-4.6,0.9-6.9
	c0.1-0.8,0.5-1.5,0.8-2.3c0.1-0.6,0.2-1.2,0.2-1.8c0-1.7,0.1-3.5-0.2-5.1c-0.3-1.6-0.7-3-0.4-4.8c0.3-1.7,0-3.7-0.5-5.4
	c-1.1-3.5-1-7-1.2-10.5c-0.2-2.3-1.4-4.6-1.5-6.9c-0.2-2.6-2.2-3.5-3.7-4.8c2-2.2,4-4.3,6-6.5c0.3-0.4,0.4-1.1,0.5-1.6
	c0.3-0.9,0.6-1.7,1.2-2.5c0.3,1.9,0.5,3.7,0.2,5.6c-0.2,1.7-1.4,4,0.5,5.7c0.1,0.1,0.1,0.4,0,0.6c-0.7,1.4,0.1,2.8-0.1,4
	c-0.4,2.2,0.3,4.3,0.2,6.4c-0.1,4-0.1,7.9,0,11.9c0.1,6.7,0.3,13.5,0.3,20.2c0,3.1,0.1,6.3-0.5,9.3
	C136.4,550.2,137.6,552.6,137,555.1z"/>
<g>
	<path class="st0" d="M700.7,520.8c0.7-1.4,1-2.7,1.8-3.6c1.7-2,0.7-5.1,3.2-6.9c0.5-0.4,0.1-2.4-0.3-3.5c-0.3-0.7-0.2-1.5-0.4-2.2
		c-0.5-2-1.4-3.7-2.4-5.5c-0.3-0.6,0.6-2.2,1.4-2.9c2.5-2.1,3.1-5.6,1.4-8.7c-0.4-0.7-0.5-2-0.1-2.7c1.3-2.3,0.2-4.7,0.8-7
		c0.3-1.3-1-2.9,1-4c0.4-0.2,0.1-1.8,0.1-2.7c0-1.6,0.7-2.5,2.4-3c3.2-0.9,6.3-2.2,9.5-3.2c1.2-0.4,2.5-0.7,3.8-0.9
		c4.3-1,8.6-2,13.2-3.1c0,0.9,0,1.6,0,2.3c0,9.3,0,18.5,0,27.8c0,9.7,0,19.4,0,29c0,2.9-0.2,5.8,0.1,8.6c0.2,2.3-0.1,4.5-0.1,6.7
		c0,2.5,0,5.1,0,7.6c0,2.5-0.2,5,0.1,7.4c0.4,3.4-0.2,6.7-0.1,10.1c0.2,3.7,0,7.3,0.1,11c0,1.2,1,2.6,0.6,3.6
		c-0.7,1.9,1.5,4-0.6,5.6c-0.1,0.1,0.2,0.7,0.3,1c0,0.1,0.3,0.1,0.3,0.1c-0.1,1.1-0.3,2.1-0.5,3.2c-0.1,0.6-0.2,1.1-0.2,1.7
		c0,11.2,0,22.4,0,33.6c0,6.1,0,12.2,0,18.3c0,4.1-0.3,8.1-0.3,12.2c0,7.2,0.2,14.3,0.3,21.5c0,4.2,0,8.4,0,12.6
		c0,1.6-0.5,2.3-2.2,1.9c-0.3-0.1-0.7,0.1-1-0.1c-3.1-1.7-6.3-0.5-9.4-0.4c-3.8,0-7.7-0.3-11.5-0.6c-3.2-0.2-6.4-0.6-9.6-0.8
		c-0.9-0.1-1.9,0.7-2.8,0.6c-0.9,0-1.9-0.5-2.9-0.9c-0.3-1.5-1.4-3.5-0.8-4.7c1.4-2.7-0.6-5.9,1.7-8.2c0.3-0.3,0.1-1,0.1-1.6
		c0.1-2.2,0.3-4.5,0.4-6.7c0.1-1,0.9-1.5,0.2-3c-0.7-1.4,0.4-3.8,1-5.6c0.2-0.7,1.5-1.1,0-1.7c0.3-0.4,0.8-0.9,0.7-1.3
		c-0.6-3.6,0.8-7.1,0.2-10.6c-0.1-0.4,0.6-0.8,1-1.3c-0.1-0.2-0.1-2.1,0-3.3c-0.2,0.3-0.4,0.5-0.8,1c0.1-0.9,0-1.7,0.3-2
		c0.7-0.6,1.1-0.8-0.1-1.1c-0.1,0-0.2-0.4-0.1-0.5c1.6-2.3,0.6-4.8,0.7-7.2c0.3-4.8,0.3-9.7,0.5-14.5c0.1-2,0.6-4.1,0.7-6.1
		c0.2-4.2-0.3-8.5,0.6-12.6c0.9-4,0.1-8.1,1.1-12c0.3-1.3-0.3-2.7,0.7-3.9c0.1-0.1-0.3-0.7-0.5-1c-0.1-0.2-0.3-0.6-0.2-0.6
		c1.5-1.3,0.7-3.1,0.7-4.6c0.1-3.9,0-7.8,0.1-11.7c0-2.4-0.4-5,0.2-7.3c0.5-2.1,0.2-4,0.2-5.9c0-2.1-0.3-4.3-0.4-6.4
		c0-1.2,0.3-2.4,0.2-3.6c-0.4-3.2-0.7-6.4-1.5-9.5C702.9,524.6,701.6,522.7,700.7,520.8z"/>
	<path class="st0" d="M736.2,331.8c0.3,0.9,0.6,1.3,0.6,1.8c-0.1,2-0.4,4.1-0.6,6.1c-0.1,1.2-0.2,2.4-0.2,3.1
		c-3,1.1-5.8,2.1-8.7,3.1c-1.4,0.5-3,0.5-4.4,0.9c-1.6,0.4-3.1,1-4.6,1.5c-0.8,0.3-1.7,0.8-2.5,0.8c-2,0.2-2.4-0.5-2.3-2.5
		c0.1-2.6-0.1-5.1-0.2-7.7c0-0.4,0-0.8,0-1.1c4.3-1.1,8.5-2.2,12.7-3.3c0.4-0.1,0.9,0,1.1-0.2c2.1-2,5-1.5,7.5-2.4
		C735.1,331.6,736,331.8,736.2,331.8z"/>
	<g>
		<path class="st0" d="M653.5,687.6c-4.7,0.5-6,4.5-6.3,7.7c-0.4,3.7,0.9,6.8,3.4,9.9c-1.1,0.7-2.1,1.5-3.3,2
			c-2.9,1.3-5.7,2.6-8.1,4.8c-0.5,0.5-1.5,0.6-2.2,0.9c-0.9,0.3-1.9,0.3-1.9,1.7c0,0.8-0.7,1.5-0.9,2.3c-0.1,0.7,0.1,1.6,0.3,2.8
			c-0.6,0.2-1.5,0.7-2.5,0.7c-4.5,0-9-0.2-13.5-0.4c-3.5-0.1-7.1-0.2-10.6-0.4c-6.1-0.3-12.2-0.8-18.2-1.1
			c-5.4-0.3-10.8-0.3-16.2-0.4c-3.6-0.1-7.2-0.5-10.8-0.3c-3.9,0.2-7.6-0.8-11.5-1.2c-2.1-0.2-4.3,0-6.4-0.1
			c-1.8-0.1-3.6-0.6-5.4-0.7c-4.2-0.2-8.5-0.5-12.7-0.4c-4.1,0.1-8-1-12-1.2c-0.5,0-1.1,0-1.6,0c-6.5-0.1-13-0.3-19.5-0.4
			c-3.9,0-7.8,0.4-11.6,0.3c-3.1-0.1-6.2-0.7-9.4-1.1c-0.9-0.1-1.5-0.6-1.5-1.7c0.1-2.7,0.1-5.4,0-8.1c0-0.7-0.3-1.3-0.2-2
			c0.1-0.6,0.5-1.1,0.9-1.7c-0.1-0.4-0.3-1-0.4-1.6c-0.2-1.4-0.5-2.8-0.6-4.2c-0.1-1.5,0-3.1-0.1-4.6c0-0.7-0.5-1.3-0.7-2
			c-0.1-0.4,0.1-0.8,0.2-1.2c0.1-0.2,0.3-0.2,0.5-0.4c-1.2-0.6-0.8-2.1-1.3-2.8c-0.6-0.8-2.1-1.3-3.2-1.4c-3.6-0.2-7.1-0.1-10.7-0.1
			c-2.8,0-5.7,0-8.5,0c-1.1,0-1.9,0.1-1.9,1.6c-0.1,1.5-0.9,2.7-2.8,2.8c-0.8-1.1-1.5-2.3-2.4-3.5c-2.4-3-5.7-2.7-9-2.7
			c-3.2,0-6.5-0.2-9.7-0.5c-2.2-0.2-4.4-0.8-6.7-1c-1.2-0.1-2.8-0.3-2.8,2.1c0,1.1-1.9,2.1-3,3.1c-0.7,0.7-1.5,1.3-2.4,2
			c-0.7-2-0.9-3.7-1.8-4.9c-0.8-1.1-2.3-1.9-3.7-2.2c-1.9-0.4-4,0-6-0.3c-5.2-0.8-10.5,0.5-15.6-1.4c-1.2-0.5-2-0.5-2.3,1.4
			c-0.4,2-1.2,3.8-3.2,5.3c-2.4,1.8-4.2,4.4-6.3,6.6c-1.4,1.4-2.7,3-4.3,4.1c-3.3,2.4-6.7,4.6-10.2,6.7c-1.4,0.8-3.1,1.3-5.1,0.9
			c-2.3-0.5-4.8,0-7.2-0.2c-5.7-0.4-11.4-1.1-17.1-1.5c-3.4-0.3-6.9-0.2-10.3-0.5c-4.2-0.3-8.3-0.9-12.5-1.3
			c-2.7-0.3-5.5-0.5-8.2-0.7c-2.9-0.3-5.9-0.5-8.8-0.8c-5.2-0.5-10.4-1-15.6-1.6c-4.5-0.5-8.9-1.4-13.4-1.9
			c-2.1-0.2-4.3,0.1-6.4-0.1c-2.9-0.3-5.7-0.8-8.5-1.2c-2.8-0.3-5.7-0.7-8.5-0.8c-10.2-0.3-20.5-0.4-30.7-0.9
			c-3.8-0.2-7.7-1.3-11.5-2.1c-1.1-0.2-2.2-0.6-3.3-0.9c-0.2-0.1-0.4-0.5-0.4-0.6c1.6-3.5,0.6-7.2,0.8-10.8c0-0.7-0.8-1.6-0.7-2.2
			c1.8-8.8,0.2-17.6,0.8-26.4c0.3-3.7-0.1-7.4,0-11c0-1.1,0.6-2.3,0.7-3.4c0.1-0.7-0.3-1.5-0.4-2.3c-0.2-6.5-0.2-13-0.4-19.5
			c0-1.2-0.7-2.3-0.7-3.5c0-1,0.3-2.1,0.5-3.1c0-0.3-0.2-0.6-0.2-0.9c-0.1-0.4-0.1-0.9-0.1-1.3c0-0.2,0.2-0.4,0.1-0.6
			c0-0.6-0.4-1.4-0.1-1.8c0.9-1.4,1-2.7,0-4c-0.1-0.1-0.2-0.4-0.1-0.5c1.7-4.9,0.3-9.9,0.7-14.8c0.1-0.9-0.9-1.8-0.7-2.6
			c1.6-7.1,0.4-14.3,0.8-21.5c0.2-3,0-6,0-9.1c0-3.9,0-7.8,0-11.8c0.2,0,0.4,0,0.6,0c0.1,0.3,0.3,0.6,0.6,1.4c0-6.8,0-13,0-19.2
			c0-1.2-0.6-2.4-0.7-3.6c0-0.5,0.7-1.1,0.7-1.6c0.1-3.4,0-6.8,0.1-10.2c0.1-1.3,0.7-2.6,0.9-3.9c0.1-0.5-0.5-1-0.5-1.5
			c-0.1-1.7,0-3.3,0-5c0-1.2-0.1-2.4-0.1-3.6c0-0.6,0.1-1.3,0.2-2.3c-0.1-1-0.5-2.5-0.5-4c0-4.4,0.2-8.8,0.4-13.2
			c0.1-1.1,0.3-2.8,1-3.2c1-0.6,2.6-0.3,3.9-0.3c6.1,0.4,12.3,0.9,18.4,1.2c5.4,0.3,10.8,0.3,16.2,0.5c8.2,0.2,16.4,0.4,24.6,0.6
			c5.7,0.1,11.5,0,17.2,0.2c5.3,0.2,10.7,0.9,16,1.2c3.1,0.2,6.2-0.1,9.4,0c7.6,0.2,15.1,0.4,22.7,0.9c3.4,0.2,6.7,0.1,10.1,0
			c4.4-0.1,8.8,0.5,13.3,0.7c6,0.2,11.9,0.3,17.9,0.4c3.4,0.1,6.8,0.2,10.2,0.4c4.5,0.2,9.1,0.5,13.6,0.8c4.6,0.4,9.1,0.9,13.7,1.2
			c2.5,0.2,5,0.3,7.5,0.3c5,0,9.9,0,14.9,0c4.4,0.1,8.8,0.3,13.2,0.3c2.7,0,5.4-0.3,8.2-0.3c9,0,18.1-0.1,27.1,0
			c5.4,0,10.8,0.3,16.1,0.4c5.4,0.1,10.9-0.1,16.3,0c6.7,0.1,13.5,0.5,20.2,0.6c4.1,0.1,8.1-0.3,12.2-0.2c6.8,0.1,13.6,0.3,20.4,0.4
			c3.1,0.1,6.3-0.1,9.4,0c5.8,0.2,11.5,0.6,17.3,0.7c4,0,8-0.4,11.9-0.6c2.1-0.1,4.3,0.1,6.4,0.2c2.6,0.1,5.2,0,7.9,0.1
			c1,0,1.9,0.3,2.9,0.4c4.5,0.2,9,0.2,13.6,0.4c4.9,0.2,9.8,0.5,14.7,0.8c3,0.2,5.9,0.6,8.9,0.8c1.5,0.1,2,0.6,1.9,2.2
			c-0.1,2.1,0.3,4.2,0.5,6.3c0.1,1.5,0.4,3.1,0.1,4.6c-0.2,0.9-1.2,1.8-2,2.5c-2.3,1.8-2.2,4.4-2.5,6.8c-0.2,1.9-0.1,3.9,0.4,5.8
			c0.4,1.4,1.6,2.7,2.5,3.9c0.6,0.8,1.3,1.6,1.9,2.4c0.2,0.2,0.2,0.9,0,1c-2.9,1.9-3.9,5.2-5.6,8c-0.8,1.2-0.4,3.2-0.5,4.8
			c0,0.2,0.3,0.6,0.2,0.7c-2.2,1.8-0.9,4.2-1,6.3c-0.3,4.5-0.3,9.1-0.3,13.6c0,4.3,0.1,8.6,0.3,12.9c0.1,1.6,0.6,3.2,0.7,4.9
			c0.2,3.2,0.2,6.5,0.4,9.7c0.1,1.7,0.5,3.3,0.6,5c0,0.5-0.2,1-0.4,1.5c-0.1,0.2-0.3,0.5-0.2,0.7c1.6,5.1,1.1,10.3,1.1,15.4
			c0,2-0.1,4.2,0.2,6.1c0.3,1.6,0.6,3.2,0.6,4.9c0,1.8,0.2,3.7,0.4,5.5c0.4,4.5,0.6,8.9,1.3,13.4c0.6,3.7,1,7.3,1.2,11
			c0.2,4.5,0.3,9,1.3,13.3c0.7,3.1,0.9,6.2,1.1,9.3c0.3,4.2,0.7,8.4,1.2,12.6c0.3,3.2,0.7,6.5,1.2,9.7
			C652.4,683.9,653,685.6,653.5,687.6z"/>
		<path class="st0" d="M682.6,143.9c2.5,1.7,1.3,4.4,1.7,6.7c0.5,2.4-0.2,5,0.2,7.5c0.5,3.5,1.5,6.9,2.1,10.4
			c0.3,1.9,0.1,3.9,0.3,5.8c0.1,1.1,0.7,2.2,1,3.4c0.1,0.6,0.1,1.2,0.2,1.8c0.3,2.3,0.6,4.6,0.8,6.9c0.2,2.6,0.2,5.3,0.4,7.9
			c0.2,1.8,0.7,3.6,1,5.4c0.2,1.2,0.2,2.5,0.2,3.8c0,2.6-0.1,5.2,0,7.8c0,0.9,0.5,1.9,0.7,2.8c0.1,0.4-0.1,0.9-0.2,1.4
			c-0.1,0.3-0.3,0.6-0.3,0.9c0,0.5,0,0.9,0.1,1.4c0.1,0.4,0.2,0.8,0.4,1.3c0.1,0.3,0.2,0.6,0.1,0.8c-1,1.5,0.4,2.8,0.4,4.2
			c0,1.7,0,3.5,0,5.2c0,0.9-0.3,1.8-0.3,2.7c0.1,4.2,0.3,8.5,0.4,12.7c0,1.6-0.1,3.2,0,4.8c0.2,1.7,0.8,3.4,0.9,5.1
			c0.1,3.1,0,6.2,0,9.3c0,3.4,0.1,6.8,0.2,10.2c0,3.4,0.1,6.8,0,10.2c0,2.6-0.2,5.1-0.4,7.7c-0.1,0.8-0.5,1.6-0.7,2.5
			c-0.1,0.4-0.3,1.1,0,1.3c1.3,1.4-0.2,2.4-0.8,2.7c-2.5,1.3-3.7,3.4-4.4,6c-0.4,1.4-1.1,2.8-1,4.3c0,3-0.8,5.9-1.6,8.8
			c0.1,0,0,0,0,0c-0.1-0.2-0.3-0.4-0.5-0.8c0.2,2.2-0.4,3.6-2,4.8c-0.8,0.6-1.1,1.9-1.5,2.9c-0.7,1.6-1.5,3-2.9,4.2
			c-1.2,1-2.1,2.4-2.8,3.7c-1.4,2.4-3.7,2.5-6,2.6c-2.1,0.1-4.2-0.3-6.3-0.3c-2,0-4.1,0.3-6.1,0.3c-1.5,0.1-3.1,0-4.6,0
			c-3,0.1-6.1,0.3-9.1,0.4c-1.3,0-2.6-0.3-3.9-0.3c-3.5,0-7,0.2-10.5,0.3c-3.1,0.1-6.3,0.3-9.4,0.3c-3.2,0-6.4-0.3-9.6-0.3
			c-2.5,0-5,0.3-7.5,0.4c-3.7,0.1-7.4-0.3-11.1,0.1c-4,0.5-8,0.3-12,0c-2.8-0.2-5.7,0.4-8.5,0.5c-1.4,0.1-2.8-0.1-4.3-0.1
			c-3.9-0.1-7.8-0.3-11.8-0.4c-5-0.1-10-0.2-14.9-0.4c-6.5-0.3-12.9-0.9-19.4-1.3c-6-0.3-12-0.5-18-0.7c-4.6-0.2-9.2-0.3-13.7-0.4
			c-6.7-0.1-13.4-0.1-20.1-0.1c-5.9-0.1-11.7-0.2-17.6-0.3c-4,0-8.1,0-12.1,0c-4.7-0.1-9.5-0.3-14.2-0.4c-4.1-0.1-8.1-0.3-12.2-0.2
			c-5.8,0.2-11.5-0.3-17.2-0.5c-4.8-0.2-9.5,0.2-14.3,0.2c-3.8,0-7.7-0.2-11.5-0.4c-1.6-0.1-3.2-0.3-4.7-0.3
			c-3.6-0.2-7.3-0.4-10.9-0.4c-4.1,0-8.3,0.2-12.4,0.3c-3.9,0.1-7.8,0-11.7,0.1c-5.3,0.1-10.6,0.3-15.9,0.3c-2.2,0-4.4-0.3-6.5-0.3
			c-1.2,0-2.5,0.4-3.7,0.3c-6.1-0.1-12.2-0.2-18.3-0.4c-6.6-0.2-13.2-0.5-19.8-0.8c-2.5-0.1-5.1-0.3-7.6-0.4
			c-4.2-0.2-8.5-0.4-12.7-0.7c-3.1-0.2-6.2-0.3-9.3-0.5c-3.3-0.2-6.6-0.6-9.9-0.7c-2-0.1-4,0.3-5.9,0.3c-2.5,0-5-0.3-7.5-0.4
			c-4.5-0.1-8.9-0.1-13.4,0c-4.6,0.1-9.1,0.2-13.7,0.4c-2.6,0.1-5.1,0.5-7.7,0.8c-2.3,0.2-2.6,0-2.5-2.3c0-1.2,0.6-2.3,0.6-3.4
			c0-1.2-0.5-2.4-0.4-3.6c0.1-2.8-1.1-5.6,0.3-8.4c0.4-0.8-0.1-2.1-0.1-3.1c0-1,0.1-2,0.2-3c0-0.4,0.2-0.7,0.2-1.1
			c0-4.4,0-8.7,0-13.1c0.1-3.3-0.2-6.8,0.5-10c1.5-7.2,0.2-14.5,0.7-21.7c0-0.7-0.5-1.4-0.6-2.1c-0.1-0.6,0.2-1.2,0.3-2.1
			c-0.7-0.5-1.3-1.3-0.2-1.8c0.1-1,0.1-1.7,0.2-2.3c0.1-0.6,0.5-1.3,0.3-1.8c-0.4-1.1-0.2-2.2-0.2-3.3c0-1.5,0.6-2.9,0.3-4.4
			c-0.3-1.6-0.2-3.3,0-4.9c0.1-0.8,0.6-1.6,0.8-2.4c0.1-0.3-0.1-0.6-0.2-0.9c-0.1-0.2-0.2-0.5-0.2-0.5c1.9-1.1-0.2-2.1-0.1-3.2
			c0.1-1.3-0.2-2.7-0.3-4.1c-0.1-2.4-0.6-5,0.1-7.1c2-5.5,0.4-11.2,1.1-16.7c0.2-1.3,0.8-2.5,1-3.8c0.2-1.1,0.1-2.2,0.1-3.2
			c0.1-4.9-0.3-10,0.6-14.8c1-5.3,0.1-10.5,1.4-15.9c0.1,0.2,0.2,0.5,0.2,0.5c-0.1-1.3-0.5-2.8-0.3-4.2c0.1-1,1-2,1.4-2.6
			c-1.7-1.9-3.4-3.7-5.1-5.6c-0.3-0.3-0.4-0.8-0.5-1.2c-0.4-2-0.9-4-1-6c-0.1-1.1,0.1-3,0.7-3.3c1.1-0.6,2.4-2.1,4.1-0.7
			c0.5,0.4,1.4,0.4,2.1,0.4c3.3-0.2,6.6-0.5,10-0.8c3.4-0.3,6.7-0.7,10.1-0.9c1.2-0.1,2.5,0.4,3.7,0.3c4.4-0.3,8.7-0.8,13.1-1.1
			c1.8-0.1,3.7,0.1,5.5,0.2c0.5,0,1,0.2,1.5,0.2c4.9-0.1,9.9-0.4,14.8-0.5c3.8-0.1,7.5,0.1,11.3,0.1c3.4,0,6.7,0,10.1,0
			c1.5,0,2.9,0,4.4,0c4.3,0,8.6,0,12.9,0c4.3-0.1,8.6-0.3,12.9-0.4c3.2-0.1,6.5,0.1,9.7,0c4.6-0.2,9.3-0.6,13.9-0.8
			c4-0.1,8,0.2,12,0.2c2.9,0,5.8-0.2,8.6-0.3c2.7-0.1,5.3-0.2,8-0.4c0.7,0,1.4-0.2,2.1-0.3c2.4-0.4,4.9-1.4,7.1-1.1
			c4.7,0.7,9.1-0.8,13.7-1c2.6-0.1,5.4-0.7,7.9-0.3c3.7,0.7,7.1-0.7,10.6-0.7c2.9,0,5.8,0.2,8.7,0c5-0.2,10-0.7,15-0.9
			c2.2-0.1,4.3,0.1,6.5,0.3c1.5,0.2,2.9,0.9,4.3,1.1c0.8,0.1,1.7-0.5,2.5-0.7c2.8-0.6,5.6-1.7,8.4,0c0.3,0.2,0.7,0.2,1,0.2
			c2.3,0,4.6-0.1,6.9-0.1c1.2,0,2.4-0.2,3.5-0.2c7.1-0.1,14.3-0.2,21.5-0.4c3.9-0.1,7.8-0.5,11.7-0.7c2.7-0.2,5.5-0.2,8.2-0.4
			c4.5-0.4,8.7,1.1,13.1,1.2c4.8,0.1,9.7,0.1,14.5,0c0.8,0,1.7-0.2,2.5-0.4c4.8-1.1,9.7-0.2,14.5-0.4c3.4-0.1,6.7,0,10.1,0
			c4,0,7.9,0,11.9,0c3.1,0,6.1-0.3,9.2-0.3c1.5,0,3.1,0,4.5,0.4c3.2,1,6.4,0.7,9.7,0.4c3.7-0.3,7.5-0.1,11.2-0.1c1.8,0,3.5,0,5.3,0
			c0.2,0,0.5,0.1,0.6,0c3.8-3.1,8.3-1.2,12.4-1.5c6.3-0.4,12.7-0.1,19-0.1c5.2,0,10.4,0,15.7,0c0.9,0,1.8,0.3,2.7,0.4
			c3.1,0.2,6.1,0.2,9.2,0.4c4.6,0.2,9.1,0.6,13.7,0.8c2.6,0.1,5.3-0.4,7.9-0.3c3.3,0.1,6.6,0.4,9.8,0.7c1.9,0.2,3.9,0.4,5.8,0.9
			c1.1,0.3,1.7,1,0.4,2.2c-1.7,1.5-3.1,3.2-4.5,5C683,141.6,682.9,142.8,682.6,143.9z"/>
		<path class="st0" d="M740.2,278.2c0.1,0.3,0.2,0.5,0.3,0.8c0.1,0,0.2,0,0.4,0c-0.1-1.8-0.3-3.7-0.4-5.5c0-0.7,0.3-1.4,0.3-2
			c0-9.8,0-19.6,0-29.4c0-0.6-0.4-1.3-0.6-1.9c-0.1-0.3-0.3-0.7-0.2-0.9c1.7-4.2,0.4-8.6,0.7-12.9c0.1-1.2-0.9-2.5-0.7-3.6
			c0.7-2.9,0.8-5.8,0.7-8.7c-0.1-2.6-1.2-5.4-0.6-7.8c0.8-3.3,0.6-6.5,0.5-9.7c-0.1-2.9,0.3-5.8,0.1-8.7c-0.3-3.3-0.8-6.6-0.9-9.9
			c-0.1-1.3,0.6-2.6,0.8-3.9c0.2-1.2,0.6-2.8,0-3.5c-1.4-1.7-0.7-3.7-0.9-5.5c-0.4-5-0.1-10-0.1-15.5c-0.3,0.5-0.5,0.6-0.9,1.2
			c0-5.8,0-11.3,0-16.7c15.1,1.2,30.1,1.9,44.9,1.8c0,4,0,8.2,0,12.4c0,1.7-0.1,3.4,0.1,5c0.2,2.4,0,4.6-0.7,7
			c-0.5,1.6-0.2,3.8-0.3,5.7c-0.1,4-0.2,8-0.4,12c-0.1,2.1-0.7,4.2-0.7,6.3c0,1.6,0.6,3.1,0.6,4.7c-0.1,4.9-0.4,9.8-0.7,14.7
			c-0.1,2.3-0.3,4.6-0.3,6.9c-0.1,2,0,3.9-0.1,5.9c-0.1,1.3-0.6,2.6-0.7,3.9c-0.1,1,0.5,2,0.1,3l-0.1,3.7c0,0.3-0.1,0.7,0,1
			c1.4,5.3,1.3,10.8,1,16.2c0,0.8,0.1,1.7,0.1,2.5c0,5.4,0,10.9,0,16.3c0,9.1,0,18.3,0,27.4c0,1.8,0.2,3.5,0.1,5.3
			c-0.1,2.6-0.4,5.1-0.1,7.7c0.1,1.5,0.6,2.9,0.7,4.4c0,1.1-0.4,2.2-0.6,3.3c0,0.1-0.2,0.3-0.1,0.4c0.5,1.6,0.6,3.1,0.2,4.8
			c-0.4,1.5,0.5,3.2,0.5,4.8c0,3.2-0.4,6.4-0.4,9.6c0,2,0.4,3.9,0.4,5.9c0,1.2-0.6,2.4-0.7,3.6c0,1.1,0.4,2.3,0.6,3.4
			c0,0.3-0.2,0.7-0.3,1c-0.1,0.3-0.4,0.6-0.3,0.8c0.2,1.6,0.6,3.2,0.7,4.8c0.2,3.4,0.4,6.8,0.4,10.2c0,6-0.1,12.1-0.1,18.1
			c0,1.7,0.1,3.5,0.1,5.2c0,14.5,0,28.9,0,43.4c0,3.6-0.1,7.2,0,10.8c0,1.6,1,3.3,0.6,4.6c-0.5,1.7,0.9,2.8,0.6,4.4
			c-0.3,1.7,0,3.5,0.1,5.3c0.2,2.1,0.5,4.3,0.6,6.4c0.2,3.4,0.1,6.8,0.5,10.2c0.2,2.4,0,4.8,0,7.2c0,0.8,0.4,1.6,0.7,2.4
			c0.3,0.8-0.9,1.6,0.1,2.3c-1.7,1.4,0.9,2.8,0.1,4.3c-0.3,0.6-0.2,1.4-0.3,1.8c0.2,1.5,0.5,2.7,0.6,4c0.1,2.3,0.1,4.6,0,6.9
			c-0.1,2.9-0.4,5.9-0.4,8.8c0,0.6,1,1.2,1.7,1.9c0.1-0.3,0.1-0.1,0-0.1c-1.7,0.5-1.7,0.5-1.6,2.5c0.1,3.3,0.4,6.6,0.4,9.8
			c0,3.1-0.3,6.3-0.3,9.4c0,3.8,0.3,7.6,0.3,11.3c0,2.6-0.3,5.3-0.3,7.9c0,2.7,0.1,5.3,0.1,8c0,2,0,4-0.1,5.9c0,1.4,0.3,2.8-0.2,4
			c-0.6,1.7,0.3,3.2,0.2,4.8c-0.2,1.7,0.3,3.6,0.3,5.3c0,9.5,0,19,0.1,28.5c0,1.6,0.6,3.1,0.7,4.7c0,1.1-0.5,2.2-0.5,3.3
			c-0.1,1.1,0.2,2.3,0.2,3.4c0,0.4,0,0.8,0,1.2c0,0.2-0.4,0.4-0.3,0.6c0.2,1.2,0.6,2.4,0.6,3.5c0,1-0.3,2-0.5,3
			c0,0.4,0.1,0.8,0.2,1.2c0.1,0.3,0.4,0.7,0.3,1c-0.4,1.3-0.3,2.6-0.1,4c0.1,0.7-0.5,1.6-0.6,2.4c-0.1,4.6-0.1,9.2,0,13.8
			c0.1,3.5,0.5,7.1,0.4,10.6c0,2.9-0.7,5.8-0.8,8.7c-0.1,3.7,0.2,7.4,0.3,11.1c0,1.5-0.2,3,0,4.4c0.4,2.9-0.7,4.9-2.8,6.7
			c-2.8,2.4-5.3,5.1-8,7.6c-1.3,1.2-2.6,2.2-4,3.3c-2.8,2.1-5.5,4.2-8.4,6.1c-2.8,1.8-5.8,3.4-8.7,5.1c-2.6,1.6-5.2,3.2-7.8,4.8
			c-2.2,1.3-4.4,2.6-7.1,4.2c-0.1-1.3-0.1-2-0.1-2.7c0-9.6,0-19.2,0-28.8c0-0.7-0.5-1.5-0.7-2.2c-0.1-0.3,0.1-0.8,0.3-1.1
			c0-0.1,0.3-0.1,0.4-0.2c-0.8-0.9-0.1-2.1-0.7-3.1c0-0.1-0.1-0.1-0.1-0.2c0.1-1.3,0.3-2.7,0.4-4c0-0.3-0.2-0.5-0.1-0.8
			c0-0.5,0.2-0.9,0.3-1.4c0.1-0.3,0.2-0.7,0.1-0.8c-1-1.4-1.2-2.7,0-4.1c0.1-0.1-0.3-0.6-0.4-0.9c-0.1-1.2-0.5-2.5-0.1-3.6
			c0.2-0.5,0.5-0.4,0-0.9c-0.8-0.9-0.4-6.2-0.1-7.1c-0.1-1.3-0.3-2.5-0.3-3.8c-0.1-2.2-0.1-4.5-0.1-6.7c0.1-3.5,0.2-7.1,0.3-10.6
			c0-1.6,0-3.3,0-4.9c0-5-0.2-10,0.1-15c0.3-4.2-0.4-8.4-0.1-12.6c0-0.4-0.2-1,0-1.2c0.8-0.5,0.8-0.9,0-1.5c-0.1-0.1-0.1-0.6,0-1
			c0.2-0.8,0.6-1.6,0.7-2.4c0.1-2,0-4.1,0-6.1c0-16.2,0-32.4,0-48.6c0-1.1-0.6-2.2-0.7-3.3c0-0.7,0.5-1.4,0.7-2.2
			c0.1-0.2-0.2-0.5-0.2-0.7c-0.1-0.5-0.5-1.2-0.3-1.5c0.8-1.7,0.9-1.7,0-3.3c-0.2-0.4-0.3-1.2-0.1-1.3c1.3-0.7,0.8-1.3,0-2
			c0,0-0.1-0.1,0-0.2c1.1-1.8-0.5-3.4-0.4-5.2c0.2-2.1,0.2-4.2,0.4-6.3c0.1-0.5,0.8-1.1,0.7-1.6c-0.1-1.1-0.5-2.1-0.7-3.2
			c0-0.3,0.3-0.6,0.4-1c0.1-0.2,0.3-0.6,0.3-0.7c-1.6-2.8-0.3-5.7-0.6-8.6c0-0.4,0.5-0.8,0.7-1.2c0-0.1-0.7-0.5-0.7-0.6
			c0.1-0.4,0.7-0.8,0.7-1.1c0-0.5-0.7-1-0.7-1.4c0.5-2.4-0.9-5,0.1-7.2c0.7-1.6-1-2.7-0.1-4.1c1.1-1.8-0.4-3.8,0-5.7
			c0.2-0.9,0.6-1.8,0.7-2.8c0.1-0.4-0.3-0.9-0.4-1.4c0-0.1-0.3-0.1-0.3-0.2c0.2-1.2,0.4-2.3,0.6-3.5c0.1-0.4,0.2-0.8,0-1.1
			c-1.2-2.2-1.2-4.1,0-6c0.1-0.2,0.2-0.4,0.1-0.6c-0.4-2.2,0.3-4.4,0-6.7c-0.1-1.2-0.3-2.3-0.1-3.5c0.3-1.7-0.5-3.4-0.7-5.1
			c-0.1-0.7,0.3-1.4,0.5-2.2c0,0-0.2,0-0.4,0c0.4-1.2-0.3-2.7,0.1-3.4c0.6-0.9,0.8-1.2-0.1-1.9c-0.2-0.1-0.1-0.9,0-0.9
			c0.8-0.3,1.4-0.6,0.1-1.1c0,0,0.1-0.5,0.3-0.8c0,0,0.2,0,0.3,0c-0.2-1.5-0.4-2.9-0.5-4.4c0-0.2-0.2-0.4-0.2-0.5c0-2.4,0-4.8,0-7.2
			c0-0.5,0.7-0.9,0.7-1.4c-0.1-1-0.7-2.1-0.7-3.1c0-1,0.3-2-0.1-2.9c1.5-0.6-0.3-1.2,0-1.9c0.4-1,0.8-2,0.7-3
			c-0.1-1.4-0.5-2.8-0.7-4.3c0-0.3,0.4-0.6,0.4-0.8c0.1-1,0-2.1,0-3.2c0-1.2,0.1-2.4,0.1-3.6c0-0.3-0.2-0.6-0.3-0.9
			c-0.1-0.3-0.3-0.6-0.2-0.8c0.2-1.3,0.5-2.5,0.8-3.8c0.1-0.4,0-0.8,0-1.2c0-3.1,0.2-6.3-0.1-9.4c-0.1-1.6,0.1-3.1,0.1-4.7
			c0-1.9,0.1-3.7,0-5.6c-0.1-1.5-0.6-3-0.7-4.4c0-0.7,0.7-1.4,0.7-2c0-0.9-0.4-1.7-0.7-2.6c-0.1-0.2,0-0.2,0.6-1.1
			c0.2-0.2-0.2-0.8-0.3-1.2c-0.1-0.3-0.3-0.6-0.3-0.9c0-2.9-0.3-5.8,0.1-8.6c0.3-1.6-0.5-3.1-0.1-4.7c1.8-7.6,0.5-15.4,0.8-23
			c0.2-6.3,0-12.5,0-18.8c0-5.4,0-10.8,0-16.2c0-5.6,0-11.1,0-16.7C739.8,278.3,740,278.3,740.2,278.2z"/>
		<path class="st0" d="M677.5,447.4c0.1,0.6,0.3,1.2,0.4,1.8c0,0.4-0.3,0.8-0.4,1.2c-0.1,0.3-0.3,0.9-0.2,1c1.7,1.8,0.5,3.9,0.8,5.9
			c0.2,1.4,0.4,2.8,0.3,4.1c-0.1,2-0.6,4-0.8,5.9c-0.1,0.5,0,1,0,2.1c-2.1,0.1-4.6,0.4-7,0.4c-4,0-7.9-0.3-11.9-0.4
			c-4.6-0.1-9.3,0.1-13.9-0.1c-6.2-0.2-12.3-0.8-18.4-1.1c-3.2-0.2-6.5-0.2-9.8-0.3c-2.3-0.1-4.5-0.5-6.8-0.5
			c-5.5-0.2-11.1-0.3-16.7-0.5c-1.3,0-2.6-0.3-3.9-0.2c-3.9,0.2-7.8,0.6-11.8,0.7c-2.5,0-5-0.6-7.4-0.7c-4.3-0.1-8.6,0-12.9,0
			c-4.7-0.1-9.5-0.2-14.2-0.3c-3.4-0.1-6.8-0.1-10.2-0.1c-6.6,0.1-13.2,0.4-19.8,0.4c-6.8,0-13.7-0.2-20.5-0.4
			c-4.1-0.1-8.1-0.4-12.2-0.4c-3.6,0-7.2,0.4-10.7,0.3c-3.5-0.1-7.1-0.5-10.6-0.6c-2.3-0.1-4.6,0-6.9,0.1c-1.9,0-3.7,0.2-5.6,0.2
			c-3.2,0-6.4,0.1-9.6,0c-1.8,0-3.7-0.3-5.5-0.3c-1.3,0-2.6,0.3-3.9,0.3c-4.6,0-9.2,0.1-13.9,0c-6.4-0.2-12.7-0.5-19.1-0.8
			c-4.9-0.2-9.8-0.4-14.6-0.8c-7.7-0.6-15.4-1.4-23-1.9c-3.3-0.2-6.6,0.4-9.9,0.3c-5.6-0.1-11.1-0.6-16.7-0.8c-3-0.1-6,0.3-9.1,0.2
			c-5.1-0.1-10.3-0.4-15.4-0.6c-3.7-0.1-7.5,0-11.2-0.1c-7.5-0.3-15-0.8-22.5-1.1c-2.7-0.1-5.5,0.1-8.2-0.1
			c-4.2-0.2-8.4-0.5-12.5-0.7c-0.5,0-1.1,0-1.6,0c-8.4,0-16.8,0.1-25.2,0c-7.1-0.1-14.3-0.4-21.4-0.8c-5.3-0.3-10.6-0.8-16-1.2
			c-5.4-0.3-10.7-0.5-16.1-0.8c-6.5-0.4-12.9-0.6-19.3-1.9c-1.4-0.3-3,0.1-4.5,0.1c-2.6,0.1-5.3,0.2-8,0.2c-4.2,0-8.4,0-12.7,0
			c-4,0.1-7.9,0.3-11.9,0.4c-6.8,0.1-13.5,0.3-20.3,0.3c-2.9,0-5.9-0.5-8.8-0.8c-2.3-0.2-4.5-0.7-6.8-0.6c-2.6,0.1-2.5-1.6-2.1-2.9
			c0.6-1.8,0.2-3.4,0.3-5.2c0.1-2.8-0.1-5.7,0.1-8.5c0.1-2,0.4-4.1,0.8-6.1c0.1-0.5,0.9-1.2,1.4-1.2c3.6-0.5,7.2,0,10.8,0.5
			c3.4,0.5,6.8,0.4,10.2,0.5c0.8,0,1.5,0.3,2.3,0.4c2.7,0.1,5.4,0.2,8,0.3c4.6,0.2,9.1,0.4,13.7,0.5c6.8,0.2,13.6,0.4,20.3,0.6
			c5.3,0.1,10.6,0,15.9,0.2c7.5,0.3,15,0.8,22.6,1.1c7.6,0.3,15.1,0.4,22.7,0.6c3.3,0.1,6.5,0.5,9.7,0.6c5.7,0.2,11.3,0.2,17,0.4
			c2.4,0.1,4.9,0.6,7.3,0.7c2.2,0.1,4.5-0.3,6.7-0.3c8.2,0.1,16.5,0.3,24.7,0.4c5.8,0.1,11.5,0.2,17.2,0.4c4.6,0.1,9.2,0.2,13.8,0.4
			c3.5,0.1,6.9,0.3,10.4,0.4c2.4,0.1,4.8,0,7.2,0c7.3,0.1,14.6,0.3,21.9,0.4c3,0,6-0.3,9-0.3c2.7,0,5.3,0.1,8,0.1c3,0.1,6,0.2,9,0.2
			c3.3,0,6.7,0,10,0c1.4,0,2.8,0.6,4.2,0.5c2.5-0.2,5,0.1,7.4,0.2c5.9,0.3,11.7,0.3,17.6,0.5c3.9,0.1,7.8,0.3,11.7,0.3
			c7.2,0,14.4-0.3,21.5-0.3c3.9,0,7.8,0.3,11.6,0.3c2.2,0,4.5-0.3,6.7-0.3c1.2,0,2.5,0.3,3.7,0.3c5,0,10.1,0,15.1,0
			c4.5,0,8.9,0.2,13.4,0.2c4.1,0,8.3-0.3,12.4-0.2c6.2,0.1,12.4,0.4,18.6,0.6c2.7,0.1,5.5-0.1,8.2-0.1c3.4,0,6.8,0.2,10.2,0.2
			c1.5,0,3-0.3,4.5-0.3c2.1,0,4.1,0.2,6.2,0.2c2.1,0.1,4.2,0.1,6.3,0.1c1.9,0,3.9,0,5.8,0c4.6,0.1,9.2,0.3,13.8,0.4
			c5.2,0.1,10.3,0.2,15.5,0.4c6.7,0.2,13.4,0.4,20,0.9c7.1,0.5,14.3,1.3,21.4,1.9c5.1,0.4,10.2,0.6,15.3,1c3.6,0.3,7.2,0.7,10.8,1
			c2.5,0.2,5,0.1,7.5,0.1c3.6,0,7.1,0,10.7,0C677.7,446.8,677.6,447.1,677.5,447.4z"/>
		<path class="st0" d="M676.1,355.8c-0.3,6.7-0.6,13.2-0.8,19.6c-0.8,0.3-1.2,0.4-1.6,0.5c-0.4,0.1-0.7,0.2-1.3,0.3
			c0-2.1,0-4.1,0-6.1c0-2.2-0.9-3.9-2.4-5.5c-2.9-3.1-6.3-5.6-10.6-6.3c-4-0.6-7.9,0.7-10.7,3.3c-1.4,1.3-2.3,3.4-3,5.6
			c-0.6,2-1.1,4.1-0.8,5.9c0.4,2.3,1.5,4.7,2.8,6.6c2.1,2.9,5.3,4.3,8.8,4.9c0.3,0,0.5,0.3,0.6,0.4c-1.1,2-3,1.9-5,2
			c-2.8,0.1-5.5,0.7-8.2,0.7c-3.8,0-7.5-0.4-11.3-0.6c-1.8-0.1-3.6-0.1-5.4-0.1c-5.9-0.2-11.7-0.5-17.6-0.6
			c-4.9-0.1-9.9,0.2-14.8,0.1c-2.2,0-4.3-0.5-6.5-0.7c-1.7-0.1-3.5,0-5.2,0c-3.7-0.1-7.4-0.4-11.1-0.5c-0.7,0-1.4-0.1-2-0.1
			c-2.3-0.1-4.7-0.2-7-0.2c-4.3,0.1-8.6,0.4-13,0.3c-4-0.1-8-0.6-12-0.7c-2.4-0.1-4.9,0.2-7.4,0.2c-1,0-2-0.3-3.1-0.2
			c-3.4,0.2-6.8,0.4-10.1,0.6c-0.7,0-1.5-0.1-2.3-0.1c-5.4-0.1-10.7-0.1-16.1-0.2c-3.8,0-7.5,0.1-11.3,0c-5.8-0.1-11.6-0.4-17.3-0.6
			c-2.5-0.1-5,0.3-7.5,0.1c-2.9-0.2-5.8-0.8-8.8-1c-2-0.2-4.1,0-6.2,0c-3.7-0.1-7.4-0.3-11.1-0.5c-1.6-0.1-3.1,0-4.7-0.1
			c-7.4-0.2-14.8-0.3-22.1-0.5c-7-0.2-14-0.5-21-0.7c-3.9-0.1-7.8-0.1-11.7-0.2c-4.8-0.2-9.7-0.4-14.5-0.6
			c-6.2-0.3-12.3-0.8-18.5-1.1c-3.4-0.2-6.9,0-10.3-0.1c-4.5-0.2-9-0.5-13.5-0.8c-3.4-0.2-6.8-0.3-10.1-0.4
			c-8-0.3-16.1-0.6-24.1-0.8c-5.8-0.2-11.5-0.2-17.3-0.4c-3-0.1-6.1-0.5-9.1-0.6c-2.5-0.1-5,0.1-7.5,0c-2.7-0.1-5.5-0.4-8.2-0.5
			c-1.7-0.1-3.4-0.1-5-0.1c-1.8,0-3.7,0.3-5.5,0.2c-2.5-0.1-5-0.5-7.5-0.6c-5.9-0.3-11.8-0.5-17.7-0.6c-4.2-0.1-8.3,0.2-12.5,0.1
			c-3.2-0.1-6.5-0.5-9.7-0.7c-1.1-0.1-2.2,0.2-3.2,0.4c-0.1-0.1-0.2-0.3-0.3-0.5c0.4-0.4,0.7-0.9,1.1-1.3c1.6-1.7,3-3.3,2.7-6
			c-0.2-1.7-0.1-3.5,0-5.2c0-1.7-0.5-3.1-1.9-4.1c-0.1-0.1-0.3-0.2-0.3-0.3c-1.1-3.5-4.4-4.3-7-5.5c-2.3-1-5.2-1-7.8-0.9
			c-5,0.1-7.2,3.9-9.3,7.6c-0.2,0.4-0.1,1-0.1,1.6c0,1.4-0.3,2.9,0.1,4.3c0.7,2.8,1.8,5.4,4.1,7.3c0.8,0.7,1.4,1.5,2.3,2.5
			c-6.3,0-12.2,0-18.4,0c0.4-3.9-0.8-7.6,1.1-11.1c0.1-0.1,0.1-0.3,0.1-0.4c-1.5-1.4,0.6-2.8,0.1-4.3c-1.2-3.4,0.7-6.7-0.4-10.7
			c3.1,0,5.7,0,8.3-0.1c3.8-0.1,7.5-0.4,11.3-0.6c7.1-0.3,14.3-0.6,21.4-0.7c5,0,10,0.3,14.9,0.5c2.9,0.1,5.9,0.7,8.8,0.7
			c3,0,6-0.6,9-0.7c2.7-0.1,5.3,0.3,8,0.4c1.4,0.1,2.7-0.1,4.1,0c1.4,0,2.7,0.3,4.1,0.3c7.4,0.3,14.8,0.5,22.2,0.8
			c3.1,0.2,6.1,0.8,9.2,1.1c1.9,0.2,3.8,0.3,5.6-0.1c2-0.4,3.8,0,5.7,0.1c4.1,0.1,8.2,0.1,12.2,0c2.2,0,4.3-0.3,6.4-0.4
			c0.9,0,1.9-0.1,2.7,0.1c2.4,0.6,4.7,0.3,7.1-0.2c2.1-0.4,4.4-0.2,6.6-0.2c2.7,0,5.4-0.1,8.1,0c2.7,0,5.5,0.1,8.2,0.2
			c1.7,0,3.4,0.1,5.1,0.1c2.4,0.1,4.8,0.3,7.2,0.4c1.8,0,3.7-0.1,5.5-0.1c3.9,0,7.7,0.1,11.6,0.1c3.8,0,7.6,0,11.5,0
			c1.1,0,2.3,0.5,3.4,0.5c1.3,0.1,2.6-0.1,3.9-0.2c2-0.1,4.1-0.4,6.1-0.4c3.9,0,7.7,0.3,11.6,0.3c1.4,0,2.7-0.3,4.1-0.3
			c1.7,0,3.4,0.3,5.1,0.3c6.1,0,12.3,0.1,18.4,0c3.3,0,6.7-0.3,10-0.3c2.3,0,4.6,0.3,6.9,0.3c1,0,1.9-0.4,2.9-0.3
			c4.4,0.2,8.7,0.6,13.1,0.7c1.9,0.1,3.9-0.3,5.8-0.3c2.4,0,4.8,0.1,7.2,0.2c1.9,0.1,3.8,0.2,5.7,0.2c10.6,0.1,21.2,0.2,31.7,0.4
			c3.2,0.1,6.5,0.5,9.7,0.8c1.1,0.1,2.3,0,3.4,0c3.2,0.1,6.3,0.2,9.5,0.4c4.5,0.3,9,0.9,13.6,1.1c4.1,0.2,8.3,0,12.4,0.3
			c2.5,0.2,5,0.9,7.4,1.3c0.4,0.1,0.9,0.4,1.3,0.4c2.9,0,5.8-0.1,8.6,0.1c3.1,0.1,6.1,0.5,9.2,0.7c1.8,0.1,3.7,0.1,5.5,0.1
			c3.9,0,7.9,0.1,11.8,0.1c2.3,0,4.7-0.5,7-0.4c2.5,0,5,0.4,7.5,0.6c0.2,0,0.5,0.1,0.7,0c4.8-1.9,9.9-1.4,14.9-1.8
			c1.9-0.2,3.8-0.4,5.7-0.3c1.5,0,3,0.7,4.4,0.7c5,0.2,10,0.4,15,0.4C663.7,355.9,669.8,355.8,676.1,355.8z M371.6,374.5
			c0.4,0.1,0.8,0.2,1.2,0.3c4.2,1.1,8.1,0.9,12-1.3c1.6-0.9,3.4-1.3,5.1,0c3.5,2.6,7.5,3.8,11.8,3.1c3.4-0.6,6.8-1.5,10.3-2.2
			c1.7-0.3,3.5-1.1,5.1,0.5c0.8,0.7,1.9,1.3,2.9,1.6c3.8,1.1,7.6,2.3,11.5,3.1c1.3,0.3,2.8-0.3,4.1-0.7c1.4-0.4,2.7-1.4,4.1-1.8
			c1.8-0.4,3.8-1,5.4-0.5c4.5,1.3,9,2,13.5,1c0.5-1,1.4-2,1.4-3c0.1-4.5,0.3-9-0.1-13.4c-0.1-1.3-0.9-3.5-2.9-3.7
			c-1.7-0.2-3.6-0.2-5.3,0.2c-2.2,0.5-4.5,0.6-6.3,2.4c-1.2,1.1-3.4,1.1-4.4-0.2c-1.1-1.5-2.5-1.9-4.1-2.1c-1.1-0.2-2.8-0.1-3.1-0.7
			c-0.8-1.4-1.9-1.3-3-1.3c-1.8,0-3.7,0.2-5.5,0.4c-0.8,0.1-1.7,0.4-2.3,0.9c-2.1,1.8-4.6,2.1-6.1,0c-1.7-2.4-4.3-2.4-6.5-3.3
			c-4-1.5-7.2,0.8-10.2,3.2c-0.7,0.6-1.5,1.2-2.3,1.5c-0.5,0.2-1.3-0.3-1.9-0.3c-3.5,0.1-6.4-1.6-9.1-3.2c-2.1-1.2-4-1.6-6.2-1
			c-2.5,0.7-4.7,2.3-7.5,1.7c-0.4-0.1-0.9,0-1.4,0c-1.8,0.1-2.3,1.2-1.5,2.8c0.4,0.8,0.6,1.7,0.5,2.6c-0.1,1.9-0.6,3.8-0.5,5.6
			C370.6,369.4,371.2,371.8,371.6,374.5z"/>
		<path class="st0" d="M121.3,132.8c-0.2-1.2-0.6-2.4-0.6-3.5c0-3.5,0.3-6.9,0.4-10.4c0.1-2.8,1.2-3.8,3.9-3.7c3,0,6.1-0.2,9.1-0.4
			c2.1-0.1,4.2-0.3,6.3-0.3c4.5-0.1,9-0.1,13.5-0.1c7,0,14-0.1,21-0.1c3.8,0,7.6,0,11.4-0.1c4.3,0,8.6-0.1,13-0.2
			c4.4-0.1,8.9-0.3,13.3-0.4c3.5,0,7.1,0.3,10.6,0.3c4.1,0,8.2-0.4,12.3-0.4c5.2,0,10.4,0.2,15.6,0.2c5.9,0,11.8-0.2,17.8-0.2
			c4.3,0,8.6,0.3,12.9,0.3c3.7,0,7.4-0.3,11.1-0.3c4.3-0.1,8.5,0,12.8,0c6.4-0.1,12.7-0.2,19.1-0.3c1.5,0,3-0.5,4.4-0.5
			c1.6,0,3.2,0.3,4.8,0.4c0.6,0,1.1,0.1,1.7,0.1c2.8-0.2,5.6-0.6,8.4-0.7c1.4-0.1,2.7,0.3,4.1,0.4c0.3,0,0.7,0,0.9-0.1
			c2.4-2.2,5.2-0.9,7.8-1.2c2.4-0.2,4.9-0.2,7.4-0.3c0.8,0,1.5,0,2.3,0c4.1-0.1,8.1,0,12.2-0.2c4.1-0.2,8.1-0.8,12.2-1
			c5.2-0.2,10.4-0.1,15.6-0.2c2.7-0.1,5.3-0.3,8-0.3c1.5,0,3,0.4,4.5,0.3c4.2-0.1,8.3-0.3,12.5-0.3c4.1,0,8.1,0.3,12.2,0.3
			c5,0,10-0.3,15-0.4c3.4-0.1,6.8,0.1,10.3,0c3.5-0.1,6.9-0.3,10.4-0.6c3.1-0.2,6.3-0.4,9.4-0.6c2.2-0.1,4.5-0.3,6.7-0.4
			c3.5-0.1,7-0.1,10.5-0.3c3.2-0.2,6.4-0.5,9.5-0.8c0.6-0.1,1.2-0.1,1.8-0.1c6.8-0.1,13.6-0.3,20.4-0.4c4.7-0.1,9.3-0.2,14-0.4
			c7.4-0.3,14.8-0.5,22.2-0.8c2.7-0.1,5.4-0.7,8.1-0.7c4.7,0,9.3,0.3,14,0.3c2,0,4-0.2,6-0.3c0.8,0,1.6,0,2.4,0c4.1,0,8.2,0,12.2,0
			c2.4,0,4.9,0.1,7.3,0c5.5-0.2,11-0.6,16.4-0.7c3.3-0.1,6.7,0.3,10,0.3c2.2,0,4.4-0.3,6.6-0.3c2,0,4.1,0.3,6.1,0.3
			c4.7,0.1,9.3,0.1,14,0c2.1,0,4.2-0.4,6.3-0.4c6.8,0.2,13.7,0.6,20.5,0.7c6,0.1,11.9-0.2,17.9-0.3c2.1,0,4.2,0,6.2-0.1
			c3.8-0.1,7.5-0.3,11.5-0.5c0,3.7,0,7.2,0,10.8c0,0.1-0.1,0.1-0.1,0.2c-0.3,2.3-0.7,4.7-0.9,7c-0.1,0.6,0.2,1.2,0.2,1.7
			c-0.3,3.2-3.1,2.4-4.8,2.6c-1.9,0.3-3.9-0.2-5.9-0.3c-2.5,0-5,0.2-7.4,0.2c-2.9,0-5.8-0.2-8.7-0.1c-2.4,0-4.7,0.3-7.1,0.3
			c-4.2,0.1-8.4,0-12.6,0c-2.4,0-4.7,0.1-7.1,0c-2.8-0.1-5.5-0.3-8.3-0.3c-5.2-0.1-10.4,0-15.6-0.1c-4.8-0.1-9.5-0.6-14.3-0.7
			c-3.9-0.1-7.9,0-11.8-0.1c-2.5,0-5-0.3-7.6-0.3c-2.4,0-4.8,0.4-7.3,0.5c-2.6,0.1-5.2-0.1-7.9-0.1c-6.4,0-12.9-0.1-19.3,0
			c-3.7,0.1-7.4,0.5-11.2,0.7c-1,0.1-1.9-0.4-2.9-0.3c-3.9,0.1-7.9,0.3-11.8,0.3c-2,0-4-0.4-6-0.3c-3.9,0-7.9,0.3-11.8,0.3
			c-2.8,0-5.6-0.3-8.3-0.3c-3,0-6,0.3-9,0.2c-4.1,0-8.1-0.2-12.2-0.3c-3.8,0-7.6,0.1-11.4,0c-2.7,0-5.5-0.2-8.2-0.2
			c-1,0-1.9,0.1-2.9,0.1c-8.9,0-17.7,0-26.6,0c-7.5,0-15.1-0.1-22.6,0c-7.8,0.1-15.6,0.5-23.4,0.8c-1.5,0-3,0-4.4,0
			c-7.5,0.3-14.9,0.6-22.4,0.9c-7.7,0.3-15.4,0.5-23.1,0.7c-3,0.1-6,0.3-9,0.4c-6.6,0.3-13.2,0.5-19.8,0.8
			c-3.9,0.2-7.7,0.6-11.6,0.8c-3.5,0.1-7-0.1-10.5,0.1c-4.4,0.2-8.8,0.6-13.2,0.7c-3.8,0.1-7.5,0-11.3,0c-2.4,0-4.9,0.2-7.3,0.4
			c-0.5,0-0.9,0-1.4,0c-3.8,0.1-7.6,0.1-11.5,0.2c-4.8,0.1-9.6,0.1-14.5,0.2c-2.8,0.1-5.7,0.3-8.5,0.3c-2.7,0-5.4-0.3-8.1-0.3
			c-2.2-0.1-4.5,0-6.7,0c-2.4,0-4.8,0-7.2,0c-3,0-6,0.1-9,0.3c-4.3,0.2-8.5,0.7-12.8,0.9c-1.2,0.1-2.5-0.4-3.7-0.3
			c-6.4,0.2-12.9,0.5-19.3,0.8c-6.1,0.3-12.3,0.5-18.4,0.8c-4.7,0.3-9.5,1-14.2,1c-5.8,0.1-11.6-0.4-17.4-0.6
			c-1.4-0.1-3,1.2-2.8,2.5c0.2,1.3-0.4,1.5-1.4,1.4c-3.7-0.1-7.5-0.2-11.2-0.5c-0.7,0-1.6-0.6-1.8-1.2
			C121.5,135.2,121.4,134,121.3,132.8C121.2,132.8,121.2,132.8,121.3,132.8z"/>
		<path class="st0" d="M183.7,542.4c0.1,0.7,0.3,1.4,0.2,2c-0.2,1.7-0.7,3.4-0.8,5.2c0,1.2,0.6,2.4,0.6,3.6c0,1.1-0.6,2.2-0.6,3.3
			c0,1.3,0.5,2.6,0.6,3.9c0.1,0.9-0.2,1.7-0.3,2.6c-0.1,0.7-0.3,1.4-0.3,2.1c0,17.5-0.1,34.9,0,52.4c0,2.4,0.9,4.7,1.1,7.1
			c0.1,2.9-0.2,5.8-0.2,8.8c0,2.1,0.2,4.2,0.2,6.4c0,1.6-0.2,3.3-0.3,4.9c-0.1,1.3,0.1,2.5,0,3.8c-0.1,1.4-0.4,2.7-0.7,4.1
			c0,0.2-0.1,0.5,0,0.7c0.7,2,0.2,3.2-1.6,3.4c-5,0.5-9.8,1.8-14.9,1.2c-4.3-0.5-8.5-0.8-12.8-1.1c-1.9-0.1-3.9,0-5.8-0.1
			c-1.1,0-2.2-0.3-3.4-0.4c0-6.2,0-12.2,0-18.2c0.1-5,0.4-10.1,0.3-15.1c0-7.8-0.2-15.7-0.4-23.5c0-1.5-0.6-3-0.6-4.5
			c0-1.5,0.6-3,0.6-4.5c0.1-13.7,0-27.5,0-41.2c0-1.9,0.2-3.7,0.3-5.6c0-0.1,0-0.1,0-0.2c-0.3-1.6-1.9-2.9-0.6-5.1
			c0.6-1-0.8-3.1-0.8-4.7c-0.1-3.9,0.3-7.7,0.2-11.6c0-5.4-0.1-10.9-0.5-16.3c-0.1-1,0-1.9,0-2.9c0.1-1.2-0.6-2.4-0.6-3.7
			c-0.1-1,0.3-2,0.4-2.9c0-0.3,0.3-0.7,0.2-0.8c-1.8-1.9-1.1-4.2-0.8-6.4c0.4-3.1,1.4-6.1,0.9-9.2c-0.1-0.6-0.6-1.2-0.8-1.8
			c-0.2-0.5-0.3-1.1-0.4-1.7c-0.2-2.7-0.4-5.5-0.5-8.2c0-1.6,0.3-3.2,0.6-4.7c0.1-0.3,0.6-0.6,1-0.7c4.7-0.8,9.4-0.7,14.1-0.1
			c4.7,0.6,9.5,0.9,14.2,1.3c4.5,0.3,9.1,0.5,13.6,0.8c0.4,0,1.2,0.4,1.2,0.7c0.1,0.6-0.1,1.3-0.3,1.9c-0.2,0.5-0.7,0.9-0.7,1.4
			c-0.2,3.8-0.4,7.5-0.4,11.3c0,5.5,0.3,10.9,0.4,16.4c0,2.4,0,4.8,0,7.3c0,0.6-0.2,1.3-0.5,1.6c-0.6,0.6-1.1,1-0.1,1.6
			c0.1,0.1,0.2,0.4,0.2,0.5c-1.8,4.3-0.3,8.7-0.7,13c-0.2,1.9-0.1,3.8,0,5.7c0.1,1,0.7,2,0.7,3c0,1.5-0.5,3-0.7,4.5
			c-0.2,2.5-0.3,5-0.4,7.5c0,0.5-0.3,1-0.4,1.5C183.5,542.4,183.6,542.4,183.7,542.4z"/>
		<path class="st0" d="M655.6,645.3c0-2.5,0.6-5.6-0.2-8.4c-0.7-2.6-0.7-5.2-1-7.7c-0.1-0.8-0.4-1.6-0.7-2.4c0-0.1-0.1-0.1-0.1-0.2
			c1.3-2.1-1.5-4.4,0.3-6.6c0.3-0.4-0.3-1.5-0.4-2.2c-0.1-1.1-0.4-2.5,0.1-3.4c1.1-1.8,0.9-3.1,0-4.9c-0.5-1-0.4-2.4-0.5-3.7
			c-0.2-1.5-0.2-3.3-0.5-4.5c-0.8-3,0.1-6.1-0.8-8.8c-1.3-3.9-0.7-7.8-1.1-11.6c-0.1-1.5-0.5-3-0.8-4.5c-0.3-1.8,0.4-3.6,0.1-5.5
			c-0.1-0.3,0.7-0.8,0.7-1.2c-0.1-1.3-0.5-2.6-0.8-3.8c-0.2-0.8-0.2-1.7-0.4-2.5c-0.3-1.3,0.8-2.9-0.8-4c1.4-0.9-1.2-2.6,0.7-3.4
			c-0.1-0.2-0.2-0.5-0.3-0.7c-0.1-0.3-0.4-0.6-0.3-0.7c0.6-0.8,1.2-1.6,0-2.4c0.8-0.6,0.3-1.2,0.1-2c-0.4-2-0.3-4.1-0.2-6.2
			c0.1-1.8,0.6-3.5,0.7-5.2c0-1.1-0.4-2.2-0.6-3.3c0-0.3,0.4-0.6,0.5-0.9c0-0.4-0.1-0.9-0.2-1.3c-0.1-0.2-0.3-0.4-0.3-0.6
			c0.8-3,1.4-6.1,2.4-9c0.5-1.5,1.7-2.8,2.6-4.2c0.6-0.9,1.1-1.8,1.8-2.5c1-1.1,1.9-1.7,3.6-0.6c1.6,1,3.7,1.2,5.6,1.5
			c5.5,0.8,11.1,1.5,16.7,2c2.6,0.2,5.4,0.3,7.9-0.5c2.9-0.8,3.4,1.1,4.6,2.6c1.1,1.4,1.2,3.1,1.3,4.8c0.1,1.2,0.9,2.3,1.1,3.5
			c0.5,2,1.1,4.1,1.1,6.2c0.2,5.5,0.1,10.9,0,16.4c0,2.1-0.4,4.1-0.4,6.2c0,2.7,0.3,5.4,0.2,8c-0.1,2.1-0.5,4.1-0.8,6.2
			c-0.1,0.5-0.1,0.9-0.1,1.4c-0.1,3.3,0.6,6.8-0.4,9.8c-0.9,2.7,0.2,5.5-1,8.1c-0.2,0.3,0.2,0.9,0.1,1.3c-0.2,1.3-0.5,2.6-0.8,3.8
			c0,0.2-0.3,0.5-0.3,0.7c0.8,3-0.1,5.9-0.4,8.8c-0.1,0.9-0.2,1.7-0.3,2.1c-0.3,1.3-0.5,2-0.5,2.7c0.1,1.3,0.5,2.6,0.4,3.9
			c-0.1,2.6-0.3,5.3-0.5,7.9c-0.1,1.7-1,3.7-0.5,5.2c1.1,3,0,5.7-0.1,8.5c-0.1,5.3-0.7,10.5-1,15.8c-0.1,2.4,0.1,4.7-0.1,7.1
			c-0.3,3.2-0.8,6.3-1.2,9.4c-0.3,2.1-0.6,4.2-0.8,6.4c-0.2,2.1-0.2,4.2-0.4,6.3c-0.3,2.2-0.8,4.4-1.2,6.5c-0.1,0.4-0.2,0.9-0.4,1
			c-2.8,0.8-5.1,2.8-8.3,2.6c-2.6-0.2-5.4,0.5-8,0.1c-2.5-0.3-5.3,0.4-7.3-1.9c-0.4-0.4-0.7-1.1-0.8-1.6c-0.2-1.9,0.4-4.3-0.5-5.7
			c-1.1-1.7-0.4-3.2-0.8-4.7c-0.3-0.9-1-1.7-1.2-2.7c-0.5-2.3-0.8-4.6-1.2-6.9c-0.2-1.3-0.9-2.7-0.6-3.8c0.7-2.5-0.6-4.6-0.6-6.9
			c0-3.7-0.7-7.4-1.2-11.1C656.7,646.6,656.2,646.2,655.6,645.3z"/>
		<path class="st0" d="M104.6,427.8c0.5-0.9,0.9-1.6,1.1-2c-0.1-1.5-0.2-2.8-0.2-4.1c0-0.2,0.3-0.4,0.3-0.5
			c-0.4-2.8,0.7-3.9,3.5-3.7c0.8,0.1,1.6,0.1,2.4,0.1c4.7,0,9.4,0,14.1,0.1c3.4,0.1,6.9,0.5,10.3,0.5c3,0,6-0.3,8.9-0.3
			c2.2,0,4.3,0.3,6.5,0.3c2.1,0.1,4.2,0,6.2,0c3.4,0.1,6.8,0.2,10.1,0.3c2.4,0.1,4.8,0,7.1,0.1c4.9,0.2,9.8,0.5,14.6,0.5
			c5.5,0,11-0.5,16.4-0.4c4,0,8,0.5,12,0.7c1.7,0.1,3.5,0,5.2,0c4.5,0.2,9,0.5,13.5,0.8c3.3,0.2,6.5,0.3,9.8,0.4
			c5.1,0.2,10.1,0.2,15.2,0.4c6.8,0.3,13.7,0.7,20.5,1.2c7.3,0.6,14.7,0.8,22,0.8c4.3,0,8.7,0.6,13,0.7c2.9,0.1,5.8-0.1,8.7,0
			c4.4,0.2,8.9,0.5,13.3,0.7c1.3,0,2.5-0.4,3.8-0.3c4.6,0.1,9.3,0.5,13.9,0.6c4,0.1,8-0.2,12.1-0.2c3.1,0,6.2,0.4,9.3,0.3
			c4.3-0.1,8.7-0.4,13-0.6c1.4,0,2.8,0.5,4.1,0.6c2.8,0.1,5.6,0,8.4,0c5.7,0.1,11.4,0.2,17.2,0.4c5.9,0.2,11.8,0.6,17.7,0.8
			c4.1,0.2,8.1,0.2,12.2,0.4c3.9,0.2,7.9,0.6,11.8,0.9c2.4,0.2,4.8,0.2,7.2,0.3c3.7,0.2,7.4,0.5,11.1,0.6c1.5,0,2.9-0.6,4.4-0.6
			c2.2,0,4.5,0.3,6.7,0.3c4.4,0,8.9-0.3,13.3-0.4c3.7-0.1,7.4-0.1,11,0c2.2,0,4.5,0.3,6.7,0.4c4.6,0.1,9.1-0.1,13.7,0
			c5.2,0.1,10.5,0.5,15.7,0.7c2.4,0.1,4.8-0.2,7.2-0.2c2.9,0.1,5.8,0.4,8.7,0.5c0.8,0,1.7-0.2,2.5-0.2c3.4,0,6.7-0.1,10.1,0
			c2.6,0.1,5.1,0.4,7.7,0.5c0.3,0,0.7-0.1,1.1-0.1c2.3,0.1,4.7,0.2,7,0.3c1.7,0.1,3.4,0.1,5.1,0.2c3.8,0.2,7.6,0.4,11.4,0.7
			c4,0.3,8,0.6,12,0.8c3.4,0.1,6.8-0.1,10.2,0c2.7,0.1,5.4-0.9,8,0.4c0.6,0.3,1.1,0.6,1.3,0.7c0,1,0,1.5,0,2.1
			c0,0.2,0.2,0.6,0.2,0.6c-1.5,1.4,0,2.9,0.1,4.2c0.2,1.6,0,2.3-1.7,2.3c-1.8,0-3.5-0.2-5.3-0.4c-4.2-0.4-8.4-0.9-12.6-1.1
			c-4.8-0.3-9.5-0.3-14.3-0.4c-5.4-0.2-10.7-0.5-16.1-0.8c-4.5-0.3-9.1-1.3-13.6-1c-5.1,0.4-10.1-0.5-15.2-0.2
			c-5.6,0.2-11.2-0.3-16.9-0.3c-4.6,0-9.1,0.3-13.7,0.3c-3.2,0-6.5-0.3-9.7-0.4c-5-0.1-10.1,0-15.1,0c-4.1,0-8.1,0-12.1,0
			c-3,0-6-0.3-9.1-0.3c-2.2,0-4.3,0.4-6.5,0.3c-5.4-0.2-10.8-0.6-16.2-0.7c-6.5-0.1-13.1-0.1-19.6,0c-5.1,0.1-10.2,0.4-15.2,0.5
			c-1.2,0-2.5-0.4-3.7-0.3c-5.2,0-10.5,0.1-15.7,0.2c-3,0-6,0.3-8.9-0.1c-8.3-1.1-16.7-1-25.1-1.2c-4.6-0.1-9.2-0.3-13.8-0.4
			c-7.3-0.2-14.7-0.3-22-0.4c-7.5-0.1-15,0-22.6,0c-4.8,0-9.6,0.1-14.4,0c-4.5-0.1-9-0.4-13.4-0.6c-4.2-0.1-8.4-0.1-12.6-0.2
			c-2.2-0.1-4.3-0.4-6.5-0.5c-2.3-0.1-4.7,0-7-0.1c-2.5-0.1-5-0.2-7.4-0.3c-1.6-0.1-3.2-0.4-4.8-0.3c-4.2,0.1-8.3,0.3-12.5,0.3
			c-2.8,0-5.7-0.5-8.5-0.6c-2.8-0.1-5.5-0.1-8.3-0.1c-3.8-0.1-7.7-0.3-11.5-0.4c-4.3-0.1-8.7,0.1-13-0.1c-4-0.2-8-0.8-12-1.1
			c-3-0.2-6-0.4-9-0.5c-5.7-0.2-11.4-0.3-17.1-0.4c-3.5-0.1-7,0.1-10.5-0.1c-4.4-0.2-8.8-0.6-13.2-0.7c-3.4-0.1-6.7,0.1-10.1-0.1
			c-2.9-0.1-5.7-0.6-8.6-0.7c-3.2-0.2-6.4-0.1-9.6-0.2c-5-0.2-10.1-0.4-15.1-0.6c-3.3-0.2-6.7-0.3-10-0.7c-0.7-0.1-1.7-1.2-1.7-2
			c-0.2-3.3-0.6-6.7,0-9.8c1.3-6.2,0.2-12.5,0.7-18.7c0.3-4.1,1-3.8,3.6-3.7c3.9,0.2,7.7,0.3,11.6,0.4c0.7,0,1.4-0.4,2.1-0.3
			c0.6,0.1,1.5,0.7,1.5,1.1c0,1.1-0.4,2.3-0.5,3.4c0,0.3,0.1,0.7,0.2,1c0,0.4,0,0.9-0.1,1.3c0,0.2-0.3,0.4-0.2,0.5
			c1.2,1.7-0.3,3.3-0.1,5c0.4,3.7,0.4,7.3-0.4,11c-0.5,2.3,0.3,4.9,0.5,7.3c0.1,0.7,0.1,1.3,0,2
			C102.5,427.2,103.1,427.9,104.6,427.8z"/>
		<path class="st0" d="M112.2,333.2c0.9-0.2,1.6-0.6,2.4-0.5c4.2,0.4,8-1.4,12-1.8c1.4-0.2,2.8,0.1,4.3,0.2c2.9,0.1,5.7,0.3,8.6,0.4
			c4,0.2,8.1,0.3,12.1,0.4c0.1,0,0.3,0,0.4,0c1.8,2.5,3.8,0.3,5.7,0.3c2.2,0,4.4-0.2,6.5-0.3c2.4-0.1,4.8,0,7.2,0c3,0,6,0,9-0.1
			c2.9-0.1,5.8-0.5,8.7-0.6c4.5-0.1,9.1,0.4,13.5-0.2c5.3-0.7,10.6,0.3,15.8,0.2c2.6,0,5.3,0.2,7.9,0.3c4.4,0.1,8.9,0.2,13.3,0.4
			c3.9,0.2,7.9,0.6,11.8,0.7c4.8,0.2,9.6,0,14.4,0.2c2.8,0.1,5.6,0.9,8.4,1c4.6,0.2,9.3,0,13.9,0.1c2.1,0,4.3,0.4,6.4,0.4
			c10.5,0,20.9-0.1,31.4-0.2c9-0.1,17.9-0.2,26.9-0.1c6.7,0,13.3,0.3,20,0.4c4.1,0.1,8.1-0.1,12.2,0c5.3,0.1,10.6,0.4,15.9,0.6
			c1.9,0.1,3.8-0.2,5.7-0.2c7,0.1,14.1,0.4,21.1,0.5c1.5,0,3.1-0.2,4.6-0.1c1.8,0.1,3.7,0.3,5.5,0.4c5.7,0,11.4,0,17.1,0
			c4.1,0,8.1,0,12.2,0c5,0,10.1-0.1,15.1,0.1c5.7,0.2,11.4,0.7,17.2,1c4.3,0.2,8.6,0,12.9,0.2c5.1,0.3,10.3,0.8,15.4,1.1
			c3.2,0.2,6.4,0.4,9.7,0.4c2.1,0,4.2-0.4,6.3-0.3c1.4,0,2.9,0.6,4.3,0.7c3.4,0.2,6.9,0.4,10.3,0.4c6.1,0.1,12.3,0,18.4,0
			c3.1,0,6.2,0.3,9.3,0.4c0.9,0,1.8-0.1,2.7-0.4c2.6-0.8,5.1-0.2,7.6-0.1c3.3,0.1,6.7-0.4,10-0.5c1.4-0.1,2.9,0.2,4.3,0.1
			c2.2,0,4.5-0.3,6.7-0.3c3.4,0,6.7,0.3,10.1,0.3c1.9,0,3.8-0.3,5.7-0.3c1.9-0.1,3.8,0,5.7,0c2.5-0.1,4.9-0.3,7.4-0.3
			c1.6,0,3.3,0.3,4.9,0.3c1.2,0,2.3-0.2,3.5-0.3c0.9-0.1,1.7,0,2.6-0.1c4-0.1,7.9-0.3,11.9-0.3c3.4,0,6.7,0.3,10.1,0.4
			c1.9,0.1,3.9,0.1,5.8,0.1c7.6,0.1,15.3,0.3,22.9,0.4c0.5,0,1,0.3,1.1,0.3c0.5,2.5,1,4.8,1.4,7.1c0.3,1.3-0.8,2.8-2.1,2.7
			c-5.2-0.1-10.5-0.5-15.7-0.5c-4.6,0-9.2-1.2-14-0.5c-4.5,0.7-9.1,0.5-13.7,0.5c-4.5,0-9-0.3-13.4-0.3c-5.8,0.1-11.6,0.5-17.4,0.7
			c-2.1,0.1-4.3,0-6.4,0c-12.2,0.1-24.3,0.4-36.5,0.3c-6.7,0-13.3-0.7-20-1c-1.9-0.1-3.9,0.2-5.8,0.2c-1,0-2.1-0.3-3.1-0.4
			c-2.3-0.2-4.6-0.3-6.9-0.4c-1-0.1-2.1-0.3-3.1-0.4c-6.4-0.3-12.7-0.6-19.1-0.8c-2.7-0.1-5.4,0.1-8-0.1c-2.3-0.1-4.6-0.6-6.9-0.7
			c-4-0.1-7.9-0.1-11.9-0.1c-1.2,0-2.4-0.2-3.5-0.2c-2.7-0.1-5.4,0-8.1-0.2c-4.2-0.2-8.5-0.6-12.7-0.7c-3.3-0.1-6.5,0.2-9.8,0.2
			c-3.1,0-6.2-0.2-9.3-0.2c-4,0-7.9,0.1-11.9,0c-1.9,0-3.9-0.2-5.8-0.3c-0.5,0-1.1-0.1-1.6-0.1c-2.1,0-4.3,0-6.4,0.1
			c-3.1,0.1-6.1,0.3-9.2,0.3c-4.6,0-9.3-0.3-13.9-0.4c-3.3,0-6.6,0.2-9.8,0.2c-6,0.1-12,0.1-18.1,0.1c-5.9,0-11.8-0.3-17.8-0.4
			c-10.3-0.2-20.5-0.3-30.8-0.4c-3.4-0.1-6.8-0.4-10.2-0.4c-4,0-8.1,0.3-12.1,0.3c-2.9,0-5.8-0.3-8.7-0.3c-2.9,0-5.8,0.2-8.7,0.2
			c-3.1,0-6.3-0.2-9.4-0.2c-2.5,0-5,0.3-7.6,0.3c-1.7,0-3.4-0.3-5.1-0.4c-4.8-0.1-9.6,0.1-14.3-0.4c-6.5-0.7-13-0.8-19.5-0.8
			c-3.4,0-6.8-0.3-10.2-0.4c-4.8-0.1-9.7-0.1-14.5-0.2c-4,0-8,0-12-0.1c-3.9-0.1-7.8-0.4-11.7-0.5c-1.4,0-2.8,0.3-4.2,0.3
			c-5.3,0-10.6,0-15.9,0c-6.6,0.1-13.2,0.3-19.8,0.4c-2.5,0-4.9-0.3-7.4-0.3c-2.7,0-5.4,0.3-8.1,0.3c-3.9,0.1-7.7,0-11.6,0
			c-4,0-8-0.1-12.1,0c-1.8,0-2.7-0.4-2.5-2.4C112.3,337.1,112.2,335.2,112.2,333.2z"/>
		<path class="st0" d="M114.9,645.9c0.1,0.1,0.5,0.4,0.5,0.8c-0.2,1.6-0.5,3.2-0.7,4.8c-0.1,0.5,0,0.9,0,1.4c0,2.8-2,4.9-4.8,5.2
			c-0.5,0.1-0.9,0.1-1.3,0.3c-3.5,1.4-6.9,0.7-10.4-0.1c-2.3-0.6-4.8-0.5-6.8-2.5c-0.8-0.8-1-1.2-0.2-2.1c0.3-0.4,0.5-1.1,0.4-1.7
			c-0.2-1.1,0.5-2.4-0.6-3.4c-0.3-0.3-0.2-1.2-0.3-1.8c-0.1-2.8,0.4-5.8-0.3-8.5c-1.1-4.3-0.7-8.7-1.2-13c-0.5-3.9-1.2-7.8-1.1-11.8
			c0-1.5-0.6-2.9-0.7-4.4c-0.1-2,0-4,0.7-5.9c0.2-0.5-0.5-1.2-0.5-1.9c-0.2-6.3-0.4-12.6-0.6-18.9c0-1.1-0.8-2.2-0.6-3.2
			c0.4-2.5-0.6-5-0.3-7.5c0.2-1.8-0.3-3.7-0.3-5.6c-0.1-3.3,0.1-6.7-0.1-10c-0.1-2.9-0.6-5.7-0.8-8.5c-0.2-2.1-0.2-4.3-0.3-6.4
			c-0.4-8.8-0.8-17.6-1.2-26.4c-0.1-1.3-0.6-2.6-0.7-3.9c-0.2-1.9-0.6-3.8,0.5-5.7c0.2-0.3,0.3-2,0.1-2.6c-0.5-2.1,0.4-3.8,0.6-5.7
			c0.1-0.9,0.7-1.7,1.3-2.5c0.9-1.2,2.1-1.1,3.4-0.6c2.1,0.7,4.3,1.1,6.4,1.7c1.2,0.3,2.4,0.7,3.6,1c3.3,0.6,6.7,1.5,10,1.5
			c2.6,0,5.3-1,7.9-1.7c2.2-0.6,3.6,0.2,4.2,2.4c0.6,2,1.4,3.9,2.1,5.9c0.2,0.5,0.2,1.1,0.3,1.7c0.3,2.2,0.6,4.4,0.8,6.6
			c0.2,3.2,0.2,6.5,0.3,9.7c0,1.4,0.3,2.7,0.1,4.1c-0.2,2-0.8,3.9-1.1,5.9c-0.1,0.9,0.5,1.9,0.5,2.9c0,1.4-0.2,2.9-0.4,4.3
			c-0.1,1.1-0.2,2.2-0.2,3.3c0,4.4,0.1,8.8-0.1,13.3c-0.1,2.4-1.1,4.9-0.9,7.3c0.1,1.4-0.3,2.6-0.3,3.9c0,4.6-0.2,9.2-0.4,13.7
			c-0.1,1.3-0.8,2.6-0.7,3.9c0.4,3.4-0.3,6.7-0.5,10c-0.3,4.7-0.8,9.4-1.2,14.1c-0.4,5-0.8,10.1-1.2,15.1c-0.3,3.3-0.8,6.6-1.2,9.9
			c-0.2,1.4-1,3-0.7,4.3c0.5,2-0.4,3.7-0.4,5.6C115.5,644.6,115.1,645.2,114.9,645.9z"/>
		<path class="st0" d="M160.2,388.3c0.4-0.4,0.7-0.9,1.2-1.5c-0.6-0.6-1.4-2-2-2c-1.8,0.2-3.5,0.9-5.3,1.6c-0.5,0.2-0.9,0.9-1.4,1
			c-3.6,0.7-6.4,3-9.4,4.8c-2,1.2-4.3,1.9-6.4,3c-1.9,1-3.8,2.2-5.7,3.3c-0.6,0.3-1,0.9-1.6,1c-2.7,0.6-3.7,3.2-5.4,4.8
			c-0.3,0.3-0.3,1.5,0,1.7c1.8,1.1,0.8,2.7,1.1,4.1c0.2,1,0.5,1.9,0.7,2.8c0.2,1.3-0.8,1.4-1.6,1.4c-5.1-0.1-10.1-0.3-15.2-0.4
			c-1,0-1.9,0-3,0c0-6.1,0-12.2,0-18.7c4-1.8,8.2-3.8,12.5-5.6c3.7-1.6,7.5-3,11.2-4.5c1.4-0.6,2.6-1.6,3.9-2.1
			c3.1-1.1,6.2-2.1,9.3-3.1c0.3-0.1,0.9,0,1.2,0.3c1.2,1,1.9,0.5,2.6-0.7c0.3-0.5,1-1.1,1.5-1.1c5.1-0.1,10.2-0.3,15.3-0.2
			c3.5,0,7,0.4,10.5,0.5c2.2,0,4.4-0.4,6.6-0.3c6.4,0.2,12.7,0.6,19.1,0.7c2.2,0.1,4.3-0.4,6.5-0.3c2.3,0,4.5,0.3,6.8,0.5
			c1.5,0.1,3,0.1,4.5,0.1c2,0.1,4,0.1,6.1,0.2c3.7,0.1,7.5,0.3,11.2,0.4c8.9,0.2,17.8,0.4,26.8,0.6c3.8,0.1,7.7,0.4,11.5,0.6
			c3,0.1,6.1,0,9.1,0c3.9,0.1,7.8,0.2,11.7,0.4c4.6,0.2,9.1,0.6,13.7,0.8c4,0.2,8,0.3,12,0.4c7.4,0.3,14.8,0.5,22.2,0.8
			c4.4,0.2,8.7,0.8,13,1c5.5,0.2,11.1,0.1,16.6,0.2c4.8,0,9.6,0,14.4,0.2c2.4,0.1,4.9,0.5,7.3,0.6c4.9,0.2,9.7,0.3,14.6,0.5
			c3.7,0.2,7.4,0.5,11.1,0.7c1.2,0.1,2.3-0.3,3.5-0.3c7.1,0.2,14.1,0.5,21.2,0.8c5.3,0.2,10.6,0.4,15.9,0.6c3.1,0.1,6.3,0.1,9.4,0.2
			c6,0.2,12,0.6,18,0.7c2.7,0.1,5.5-0.3,8.2-0.3c1,0,2.1,0.4,3.1,0.3c5.9-0.1,11.8-0.4,17.7-0.3c4.5,0.1,8.9-0.8,13.4,0.2
			c2.6,0.5,5.3,0.1,8,0.2c5.7,0.2,11.5,0.6,17.2,0.7c1.9,0,3.7-0.4,5.6-0.7c0.4,0,0.8-0.1,1.2,0c2.9,1,5.9,0.4,8.9,0.4
			c6.9,0.1,13.9,0.5,20.8,0.7c4.4,0.1,8.8-0.1,13.2,0.1c5.3,0.2,10.5,0.8,15.7,1.1c1.9,0.1,3.8-0.4,5.7-0.3c2.7,0,5.3-0.2,8.1,0.4
			c3.9,0.8,8.1,0.4,12.1,0.6c0.6,0,1.1-0.1,1.8-0.2c-1.2,2.2-0.6,4.4-0.7,6.6c-0.1,2.8-0.3,3.2-3.3,3.3c-3.7,0.1-7.3,0-10.9,0
			c-0.7-4.1-3.8-4.9-7.3-4c-3,0.8-5.8,2.4-8.7,3.6c-0.6,0.2-1.3,0.2-1.4,0.2c-1.4-1.4-2.6-2.5-3.7-3.6c-0.3-0.3-0.7-0.5-1-0.8
			c-2.8-2.8-5.5-0.7-8.2,0.3c-1.3,0.5-2.6,1.2-3.7,2.1c-2.8,2.1-5.8,0.5-8.6,0.8c-1.5,0.1-3-0.3-4.5-0.3c-4.3-0.2-8.6-0.3-12.9-0.4
			c-0.2,0-0.4,0.1-0.6,0c-0.8-0.3-1.8-0.2-1.6-1.8c0.1-1.5-1-2.3-2.6-3.1c-3.4-1.6-6,0.3-8.8,1.1c-1.1,0.3-1.1,2.2-2.7,2.3
			c-2.6,0.2-5.1,0.7-7.6-0.5c-0.8-0.4-1.8-0.1-2.5-0.5c-0.5-0.3-0.4-1.4-0.9-1.8c-2.3-1.7-4.8-1-7.1-0.3c-2.7,0.7-5.4,1.6-8,2.6
			c-1.6,0.6-2.7,0.3-3.6-0.9c-1.7-2.4-4.3-2.1-6.6-2.1c-1.2,0-2.5,0.3-3.6,0.7c-1.7,0.6-3.2,1.6-4.9,2c-2,0.4-4.2,0.4-6.3,0.4
			c-3.1,0-6.1-0.1-9.2-0.2c-3.8-0.1-7.6-0.3-11.5-0.4c-0.5,0-1.1,0.3-1.5,0.2c-1.4-0.4-3,0.9-4.2-1.5c-1.2-2.3-4.4-2-6.9-1.7
			c-3.6,0.5-7,1.8-10.7,1.4c-1.8-0.2-3.5,0-5.3-1.1c-2-1.2-4.4-1-6.7,0c-1.7,0.7-3.2,1.2-5.2,0.9c-3.9-0.5-8-0.5-12-0.6
			c-3.2-0.1-6.4-0.1-9.5,0c-1.2,0-2.1-0.3-3.1-1.1c-0.8-0.6-1.9-1.3-2.8-1.2c-2.5,0.3-4.9,1-7.3,1.6c-1.3,0.3-2.7,0.7-4,0.7
			c-2.8,0-5.7-0.1-8.5-0.4c-0.8-0.1-1.6-0.8-2.4-1.1c-2.9-1.2-5.8-0.5-8.5,0.3c-3.3,0.9-6.2,1.2-8.5-1.9c-0.2-0.3-0.5-0.8-0.7-0.8
			c-2,0.2-4.3,0-6.1,0.8c-3.5,1.4-7,1.6-10.7,1.5c-2.5-0.1-5.1-0.7-7.6-0.8c-4.1-0.2-8.3-0.1-12.4-0.1c-1.5,0-2.7,0.3-3.8-1.3
			c-0.9-1.4-2.8-1.8-4.6-1.1c-2,0.8-4,1.5-6.1,2.1c-2.1,0.6-4.3,0.9-6.6,1.4c-0.1-0.4-0.2-0.7-0.3-1.1c-0.4-2.5-0.8-2.9-3.5-3
			c-1.2-0.1-2.5-0.2-3.7-0.5c-1.6-0.4-3.1-0.6-4.6,0.6c-2,1.5-4.4,1.9-6.7,1.7c-5.3-0.3-10.6,0.7-15.8-0.8c-1.7-0.5-3.8,0-5.6-0.1
			c-1.3-0.1-2.6-0.7-3.9-1c-1.1-0.3-2.2-0.4-3.3-0.6c-0.6-0.1-1.3-0.2-1.8-0.6c-2.6-2.1-3.5-2.2-6.4-0.7c-2.3,1.2-4.5,2.4-6.9,3.4
			c-2,0.9-2.1-1.2-2.7-2.2c-0.8-1.3-2.2-2.3-3.7-2c-0.6,0.1-1.3,0.3-1.8,0.1c-4-1.8-7.1,0.6-10.5,2c-0.1,0-0.3,0-0.2-0.4
			c-1.5-0.7-2.9-2-4.5-2.1c-3.4-0.2-7.1-0.6-10.2,0.4c-3.2,1-6.1,1.4-9.4,0.7c-2.5-0.6-5.2-0.4-7.8-0.4c-2.7,0-5.2-0.4-7.6-1.8
			c-3.3-1.9-6.3,0-9.3,1.2c-0.3,0.1-0.6,0.3-1,0.5c-4.1,2.1-4.1,2.1-6.3-1.7c-0.8-1.4-3.9-2.4-5.8-1.9c-3.6,1-7,2.6-10.4,4.2
			C163.9,387.3,162,387.7,160.2,388.3L160.2,388.3z"/>
		<path class="st0" d="M139.6,156.3c3.4,0,6.4-0.1,9.4,0c4.8,0.1,9.6,0.5,14.5,0.6c2.9,0.1,5.8-0.2,8.7-0.2c1,0,2.2,0.1,3.1,0.5
			c0.6,0.3,1.3,1.2,1.3,1.8c0.1,3,0.2,6,0,8.9c-0.2,3.1-0.8,6.2-1.1,9.4c-0.2,1.8-0.1,3.6-0.1,5.4c0,2.1-0.6,4.3-0.6,6.3
			c0,1.7-0.4,3.4-0.3,5.2c0,2.2-0.7,4.5-1,6.7c-0.2,1.8-0.1,3.6-0.1,5.4c-0.1,5.4-0.3,10.8-0.4,16.1c0,3.4,0.3,6.9,0.3,10.3
			c0,1.4-0.7,2.8-1,4.2c-0.1,0.6-0.1,1.2-0.1,1.8c0,11.7,0,23.3,0,35c0,5-0.1,10-0.4,14.9c-0.2,4.4-0.7,8.7-1.1,12.9
			c-3.3-0.4-6.7-1.2-10.1-1.2c-2.6,0-5.1,0.2-7.8-0.4c-2.2-0.4-4.6,0.2-6.9,0.4c-1.1,0.1-1.4-0.3-1.3-1.3c0-2,0-4,0-6
			c0-13.1,0.1-26.3,0-39.4c0-3.7-0.5-7.3-0.8-11c-0.1-2.1-0.3-4.2-0.4-6.2c-0.1-1.4,0-2.8,0-4.2c-0.3-6.1-0.6-12.3-0.8-18.4
			c-0.1-3.6-0.1-7.2-0.1-10.9c-0.1-7.1,0-14.3-0.3-21.4c-0.2-4-0.9-8-1.4-12C140.3,165.3,140,160.8,139.6,156.3z"/>
		<path class="st0" d="M716.9,297.7c0.3,0.4,0.7,0.9,1.4,1.7c-3.9-1.3-7.2,0-10.6,0.3c-3.6,0.3-7.2-0.1-10.9-0.4
			c-0.9-0.1-1.8-0.5-1.4-2.2c0.4-2.1,0-4.4,0-6.6c0-0.6,0.2-1.2,0.4-2.2c0.1,0.1-0.5-0.5-0.4-0.7c0.8-2.1-0.1-4.2,0.2-6.4
			c0.3-2.4,0.1-4.9,0.1-7.3c-0.1-2.7-0.3-5.3-0.4-8c0-2.1,0.4-4.2,0.3-6.3c0-4.7-0.1-9.4-0.5-14c-0.1-1.1,0.2-2.1,0.1-3.1
			c-0.2-1.4-0.7-2.8-0.7-4.2c-0.2-3.2-0.1-6.4-0.2-9.5c-0.1-5.6,0.5-11.4-0.5-16.9c-0.8-4.7-0.4-9.4-0.9-14.1
			c-0.6-5.6-0.8-11.2-1.3-16.8c-0.2-2.5-0.4-5.2-1.2-7.6c-1.1-3.2-0.9-6.3-1.2-9.5c-0.2-2.5-0.4-5-1.3-7.3c-0.5-1.2,0.4-2.5,0-2.9
			c-1.2-1.3-0.6-2.6-0.7-3.9c-0.2-4.6,0.6-5.2,5.1-5c2.6,0.2,5.2,0,7.7,0.1c1.7,0,3.4,0.2,5.2,0.2c1.6,0,3.1-0.4,4.7-0.3
			c2.8,0,5.7,0.4,8.5,0.3c2.2,0,4.4-0.4,6.7-0.6c-0.4,2,0.9,4.5-1.1,6.6c-0.3,0.4-0.1,1.3,0,1.9c0.1,0.5,0.5,1,0.7,1.5
			c0.1,0.3,0,3.7-0.1,4c-0.2,0.7-0.6,1.3-0.6,2c-0.1,5.5-0.1,11-0.2,16.5c-0.1,1.9-0.9,3.8-0.9,5.7c-0.2,4.7,0.7,9.6-0.4,14
			c-1.1,4.3,0.1,8.6-1.3,12.7c-1.6,4.6-0.2,9.4-1.1,14c-0.5,2.9-0.7,5.9-0.8,8.8c0,1,0.6,2,0.6,3c0,0.6-0.6,1.2-0.6,1.8
			c-0.1,3.2-0.1,6.4-0.2,9.6c-0.1,2.7-0.2,5.3-0.3,8c0,2.5,0.2,4.9,0.1,7.4c0,0.9-0.6,1.9-0.8,2.8c-0.1,0.4-0.1,1.3,0,1.3
			c1,0.4,1,0.7,0.1,1.3c-0.1,0.1,0.3,0.8,0.3,1.2c0,0.3,0,0.6-0.1,0.9c-0.1,0.3-0.5,0.7-0.4,0.8c1.3,1.7-0.4,3.3-0.1,4.9
			c0.3,2,0.1,4.1,0.1,6.2c0,2.1,0,4.1,0,6.2c0,2.5,0,5-0.1,7.4C717.9,296.3,717.3,296.9,716.9,297.7z"/>
		<path class="st0" d="M683,441.9c0.2-4,0.3-7.5,0.5-11.1c0.1-1.6-0.3-3.3,0.1-4.8c1.1-3.6,0.6-7.2,0.7-10.9c0-0.7-0.4-1.3-0.7-2
			c-0.1-0.2-0.1-0.4-0.1-0.6c1.7-3.1,0.8-6.4,0.6-9.6c-0.1-2.7,1.7-3.7,3-5.1c1.5-1.5,3.5-2.5,5.2-3.7c2.3-1.8,4.6-3.6,6.9-5.4
			c2.6-2.1,5.3-4.2,7.8-6.5c0.5-0.5,0.6-1.4,1-2.2c-0.9-0.7-1-3.1-0.4-4.1c0.2-0.3,0-1-0.1-1.5c0-0.1-0.2-0.3-0.2-0.3
			c1-1.8-0.7-3.5,0-5.3c0.1-0.2,0.1-0.4,0.2-0.5c0.2-0.3,0.1-0.3-0.1-0.8c-0.1-0.5,0-1.1,0.2-1.7c-1.8-4.1,0.4-7.6,1.8-11.2
			c0.6,0,1.1,0,1.6,0c0.5,0,1.2,0.1,1.5-0.1c3.7-3.8,9-3.8,13.5-5.5c1.6-0.6,3.1-1.3,4.8-1.7c1.5-0.4,3.1-0.6,4.9-0.9
			c0,2.9,0,5.5,0,8.1c0,5.5-0.1,11.1,0.1,16.6c0,1.3-0.6,2.8,0.7,4c0.1,0.1-0.1,0.6-0.2,1c-0.1,0.3-0.4,0.8-0.3,0.8
			c0.9,0.6,1,1.1-0.1,1.6c0,0,0.1,0.5,0.2,0.7c0.1,0.2,0.3,0.3,0.5,0.5c-1.2,1.1,0.2,2.3-0.1,3.2c-1,3.5-0.7,7-0.7,10.6
			c0,1.1,0.5,2.2,0.7,3.3c0.1,0.3,0,0.8-0.2,0.9c-0.8,0.5-1.2,0.8,0.1,1.1c0.1,0,0.2,0.5,0.1,0.5c-1.7,1.5-0.7,3.5-0.7,5.2
			c-0.1,7.1-0.1,14.2-0.1,21.6c-1.4,0.3-2.8,0.5-4.2,1c-2.2,0.8-4.4,1.8-6.6,2.6c-1.1,0.4-2.3,0.6-3.4,1c-3.6,1.3-7.2,2.7-10.8,3.9
			c-2,0.6-4.1,0.8-6.1,1.4c-3.2,1-6.4,2.3-9.7,3.2C691.4,440.2,687.4,440.9,683,441.9z"/>
		<path class="st0" d="M721.2,288.5c0.1,0-0.3-0.1-0.3-0.1c0.1-1.2,0.3-2.3,0.5-3.5c0-0.2,0.1-0.4,0-0.5c-1.7-1.3-0.2-3-0.6-4.5
			c-0.1-0.4-0.1-0.9,0-1.3c0-0.4,0-0.8,0.1-1.2c0.2-0.6,0.7-1,0.7-1.6c0.1-1.5,0.3-3.1,0-4.6c-0.7-3,0.3-6,0.1-9
			c-0.2-3.5-0.1-7,0-10.5c0.1-3-0.2-6.1,0.5-8.9c1.4-5.8,0.3-11.5,0.7-17.3c0.1-1.6,0-3.2,0.1-4.8c0-0.3,0.4-0.7,0.7-1
			c0.1-0.1,0.3-0.3,0.4-0.4c-2-1.9,0.6-3.8,0.1-5.9c-0.5-2.3-0.2-4.8-0.1-7.2c0.1-1.3,1.3-2.9,0.9-3.8c-0.5-1.3,0.2-2.1,0.2-3.2
			c0.1-2.4,0.2-4.7,0.4-7.1c0.1-1,1.3-2,0-3c1.9-4.7,0-9.6,1.2-14.3c0.3-1.3,0.7-2.5,0.7-3.8c0-0.8-0.2-1.8-0.4-2.6
			c-0.5-1.9,0.1-4.1,0.3-6.2c0-0.4,0.2-0.8,0.1-1.1c-0.1-0.2-0.7-0.4-0.6-0.5c0.1-0.3,0.4-0.6,0.5-0.9c0.1-0.5,0.2-1,0.2-1.5
			c0.1-3.8,0.2-7.6,0.4-11.4c0-0.6,0.7-1.1,0.7-1.6c0-1.3,0.1-2.4-1-3.7c-1.4-1.5-1.8-3.9-2.4-6c-0.1-0.3,1.2-1.3,1.9-1.4
			c1.9-0.3,3.8-0.2,5.7-0.4c2-0.2,3,1,3,3.8c0,5.8,0.1,11.5,0.2,17.3c0,1,0.7,2,0.7,3.1c0.2,5.9,0.4,11.9,0.4,17.8
			c0.1,6.9,0,13.7,0.1,20.6c0,1.2,0.9,2.5,0.7,3.6c-1.7,12.7-0.2,25.4-0.7,38c-0.1,1.7,0.1,3.4,0.8,5c0.1,0.2-0.1,0.6-0.2,0.9
			c0,0.5,0,0.9,0,1.4c0,0.2,0.2,0.4,0.2,0.5c-1,2.2,0.7,4.4,0,6.6c-0.2,0.5-0.5,0.9-0.6,1.4c-0.1,0.2,0.1,0.5,0.2,0.7
			c0.1,0.2,0.4,0.6,0.4,0.7c-0.9,1.4,0.3,2.8,0.1,4.2c-0.2,1.8-0.2,3.7-0.3,5.4c-0.2,2.6-0.8,5.2-0.5,7.7c0.5,3.4-0.4,6.7-0.1,10.1
			c0.2,3.5,0.1,7.1,0,10.7c0,2.4-0.3,4.9-0.4,7.3c-0.1,3.1,0.2,6.2-0.1,9.3c-0.2,1.6,0.2,3.1,0.1,4.6c0,1.7,0.6,3.5,0.2,5.1
			c-0.5,2.1,0.4,4.2-0.9,6.4c-1.2,1.8-0.7,2-3.3,2.6c-1.7,0.4-3.4,1.2-5.1,1.8c-2.8,0.9-3.3,0.5-3.4-2.2c-0.1-4.1-0.1-8.2-0.5-12.3
			c-0.2-2.2-1.9-4.4-1.7-6.5c0.2-1.5-0.6-2.6-0.5-3.9c0.1-1.6,0-3.2-0.2-4.8c-0.1-0.9-0.6-1.8-0.9-2.7c-0.2-0.6-0.2-1.1-0.3-1.7
			c0-1.7-0.1-3.5,0-5.2C720.5,290.2,720.9,289.4,721.2,288.5z"/>
		<path class="st0" d="M182.7,661.5c0,7.9,0,15.8-0.1,23.6c0,0.6-1,1.7-1.6,1.7c-4.2,0.4-7.5,3-11.1,4.8c-2.5,1.2-4.8,2.7-7.3,3.9
			c-3.8,1.8-7.6,3.7-11.4,5.3c-3.1,1.4-6.4,2.3-9.5,3.7c-1.9,0.9-3.7,2.2-5.5,3.3c-0.7,0.4-1.3,0.9-2.1,1.2c-4.5,2.1-9,4.1-13.6,6.1
			c-0.7,0.3-1.4,0.7-2.1,0.9c-0.4,0.1-0.9-0.2-1-0.2c0-2.2,0-4,0-5.8c0-2-0.1-3.9,0-5.9c0.3-5,0.8-10,1.2-14.9
			c0.1-0.8,0.2-1.7,0.2-2.4c0.2-1.9,0.1-3.8,0.6-5.6c0.1-0.4,0.6-0.9,1-1.1c3.1-1.2,6.2-2.5,9.4-3.5c3.9-1.2,7.9-2.1,11.9-3.2
			c1.3-0.4,2.4-1.2,3.6-1.6c4.6-1.3,9.3-2.4,13.9-3.6c0.3-0.1,0.6-0.1,0.9-0.2c2.6-0.7,5.2-1.5,7.8-2.2c1.9-0.5,3.7-1,5.5-1.6
			C176.6,663.3,179.7,662.4,182.7,661.5z"/>
		<path class="st0" d="M659.9,721.7c-0.3-0.4-0.4-0.7-0.6-1c0.1-0.1,0.1-0.2,0.2-0.3c0.5,0.3,1,0.6,1.5,0.9c0.5,0.3,1,0.7,1.4,0.7
			c3.1,0.2,6.1,0.2,9.2,0.3c1.9,0,3.9,0.1,5.8,0c1.2,0,2.5-0.2,3.7-0.2c2.9,0,5.9,0,9,0c0.1,0.6,2,1.4,0,2.6
			c0.8,0.7,2.1,1.4,0.4,2.3c-0.2,0.1-0.2,1-0.1,1.1c1.6,0.6,0.6,1.1,0.4,1.3c0.3,1.5,0.6,2.7,0.7,3.9c0.3,2.1,0.7,4.1,0.8,6.2
			c0.2,3.5,0.5,7,0.3,10.5c-0.1,2-2.2,2-3.5,2c-2.1,0.1-4.1-0.6-6.2-0.7c-2.5-0.1-5-0.1-7.5,0c-5.3,0.1-10.5,0.4-15.8,0.3
			c-3.8,0-7.4,0.5-11.1,1.5c-1.1,0.3-2.4-1.2-2.4-2.4c-0.1-5,0.5-10-0.5-14.8c-0.8-4-0.8-7.9-1-11.9c0-0.2,0-0.4-0.1-0.6
			c-0.3-0.7-0.6-1.4-0.9-2c0.8-0.2,1.6-0.6,2.4-0.5c4.2,0.2,8.3,0.6,12.5,0.8C659,721.8,659.5,721.7,659.9,721.7z"/>
		<path class="st0" d="M115.6,681.9c0,2.9,0.7,5.9-0.2,8.4c-0.9,2.6-0.7,5.1-0.8,7.7c-0.2,4.4-0.3,8.9-0.4,13.3
			c-0.1,1.6-0.3,3.2-0.4,5c-3.6-0.2-7.1-0.5-10.5-0.5c-4.5-0.1-9,0.2-13.5-0.1c-3.8-0.2-7.6-1-11.4-1.6c-0.4-0.1-0.9-1.2-0.9-1.8
			c0-4.3,0.3-8.5,0.3-12.8c0-5.8-0.2-11.6-0.3-17.4c0-0.8,0-1.6,0-2.6c2.2,0,4.4-0.3,6.5,0.1c3.2,0.5,6.4,1.1,9.6,0.3
			c0.5-0.1,1.1-0.1,1.6,0.1c2.3,0.5,4.6,1.4,7,1.5c3.2,0.3,6.3,0,9.5,0C112.9,681.4,114.2,681.7,115.6,681.9z"/>
		<path class="st0" d="M735.9,692.2c0.6,3.7-0.3,7.3,0.7,10.8c-0.1-0.2-0.3-0.4-0.5-0.8c0,0.7-0.2,1.2,0,1.5
			c1.2,1.4,1.1,2.8,0.1,4.3c-0.1,0.1,0.6,0.7,0.6,1c-0.1,1.3-0.4,2.6-0.6,3.9c-0.1,0.6-0.2,1.2-0.1,1.8c0.2,1.6,0.6,3.1,0.6,4.6
			c0,1.3-0.1,2.9-0.8,3.8c-0.8,1.1-2.3,1.7-3.5,2.5c-1.7,1.2-3.3,2.6-5,3.7c-3.2,2.2-6.4,4.3-9.6,6.4c-4.7,3-9.4,5.9-14.1,8.9
			c-2.2,1.4-4.4,2.8-6.8,4.3c-0.3-1.3-1.4-1.8-0.5-3.4c0.5-1.1,0.7-3.9,0-4.4c-1.9-1.7-0.1-4.2-1.8-5.7c-0.3-0.2-0.1-1-0.1-1.6
			c0-3.7,0-7.4,0-11.3c0.4-0.2,1-0.5,1.8-0.8c0.5-2.7,3.1-3.4,5-4.8c1.8-1.3,3.6-2.5,5.4-3.7c1-0.7,2.2-1.2,3.3-1.8
			c1.1-0.7,2-1.5,3.1-2.3c2-1.5,4-2.9,6-4.4c1.8-1.3,3.4-3.1,5.4-3.8c2.4-0.9,3.7-2.9,5.8-4.2c1.4-0.9,2.6-2.3,3.9-3.4
			C734.5,692.7,735.2,692.5,735.9,692.2z"/>
		<path class="st0" d="M681.2,446.1c3.8-1,7.7-1.9,11.7-3c3.7-1,7.3-2.2,11-3.3c4.9-1.4,9.9-2.7,14.8-4.1c3.2-0.9,6.4-2.1,9.5-3.2
			c1.5-0.5,2.8-1.4,4.3-1.8c2.8-0.8,3.5-0.2,3.5,2.7c0,5.3,0,10.5,0,15.8c0,0.9,0,1.8,0,2.6c-9.4,2.6-18.7,4.9-27.8,7.6
			c-9.1,2.7-18,5.9-27.3,8.9c0.1-1.2,0.1-2.1,0.3-3c0.5-2,0.1-3.9,0-5.9C681,455,681.2,450.5,681.2,446.1z"/>
		<path class="st0" d="M653.4,442.5c0-2.6,0-5.3,0-7.9c0-2.6,0.2-5.3,0.2-7.9l0-6.4c0.3-2.1,0.6-4.3,0.9-6.4c-0.1,0-0.2,0-0.4-0.1
			c-0.1,0.3-0.2,0.6-0.5,1.3c0.3-3,0.6-5.4,0.8-7.9c0.2-1.6,0.2-3.2,0.4-4.7c0.1-0.6,0.3-1.1,0.3-1.7c0.5-1.5,1.5-1.6,3-1.4
			c5.5,0.6,11,1.1,16.5,1.6c0.9,0.1,1.7-0.1,2.6-0.1c2.5-0.1,3.6,0.9,3.6,3.4c0,4.9,0,9.7,0,14.6c0,0.7,0.4,1.4,0.6,2
			c0.1,0.2,0.2,0.6,0.1,0.8c-1.6,2.4-0.3,5.1-0.8,7.6c-0.1,0.8-0.6,1.5-0.9,2.3c-0.1,0.4-0.3,0.9-0.2,1.3c0.2,1.6,0.6,3.3,0.7,4.9
			c0,1.5-0.4,3-0.8,4.4c-0.1,0.4-0.9,0.8-1.3,0.8c-4.8-0.1-9.6-0.3-14.4-0.3c-1.3,0-2.6,0.4-3.9,0.3
			C657.7,442.9,655.6,442.6,653.4,442.5z"/>
		<path class="st0" d="M792.5,114.1c-0.6,4.5,0.4,9.3-1.3,13.4c-5.4,0.2-10.5,0.5-15.6,0.7c-2.4,0.1-4.8-0.1-7.2-0.3
			c-2-0.2-4-0.6-6-0.7c-3.2-0.2-6.5-0.3-9.7-0.4c-2.8-0.1-5.7-0.2-8.5-0.4c-1.2-0.1-2.1-0.5-2.1-2c0.2-4.7,0.3-9.4,0.5-14.1
			c0-0.6,0.7-1.2,0.7-1.8c-0.1-0.7-1.5-1.5,0-2.2c-1.5-1.1,0.8-2.1-0.1-3.2C759.6,106.7,775.9,110.3,792.5,114.1z"/>
		<path class="st0" d="M705.1,334.7c-0.3,0.1-0.9,0.3-1.6,0.3c-4.7-0.1-9.3-0.3-14-0.4c-3.3-0.1-6.6,0-9.8,0c-0.6,0-1.3-0.4-2-0.6
			c2-3,3.6-5.8,5.6-8.4c1.4-1.8,2-4,3.2-5.9c1.4-2.2,1-5.4,1.5-8.2c0.4-2.4,0.6-4.8,1.4-7c0.4-1.2,1.9-2.2,3.1-2.8
			c0.8-0.4,2.1,0.4,3.2,0.5c2,0.2,4.1,0.3,6.1,0.4c1.4,0.1,2.9,0.4,4.3,0.3c2.8-0.2,5.6-0.7,8.4-1c1.2-0.1,2.4-0.2,3.6-0.1
			c0.3,0,0.8,0.7,0.7,1c-0.8,2.3,0.7,4.6,0.1,6.9c-0.4,1.7-0.3,3.5-0.9,5c-0.4,1-1.6,1.8-2.6,2.5c-2.8,2-5.2,4.1-7,7.2
			c-1.2,2.1-1.4,4.7-3.3,6.5C704.4,331.6,705,333.2,705.1,334.7z"/>
		<path class="st0" d="M167.3,305.2c-1.3,1.1-2.6,2.2-3.9,3.2c-1.9,1.6-2,3.8-2.3,6c-0.2,1.3-0.4,2.6-0.7,3.9c0,0.2-0.2,0.4-0.2,0.6
			c0.3,3-2.3,4.5-3.3,6.7c-1.3,3.1-3.4,2.8-5.8,2.7c-5.8-0.2-11.6-0.3-17.4-0.4c-0.7,0-1.4-0.2-2.1-0.3c-1.3-0.2-1.3-0.7-0.6-1.7
			c0.3-0.4,0.4-1.1,0.4-1.6c0-2.3,0.3-4.6-0.1-6.8c-0.4-2.5,1-4.5,1.6-6.8c0.2-0.7,1.1-1.3,1.9-1.6c2.2-0.8,3.6-2.5,5.2-4.1
			c0.9-0.9,2.6-1.2,4-1.3c2.7-0.2,5.6-0.4,8.3,0c4.7,0.7,9.5-0.5,14.1,1.2C166.6,304.8,166.9,305.1,167.3,305.2z"/>
		<path class="st0" d="M656,495.1c1.3,0.3,2.7,0.7,4.1,1c2.8,0.5,5.7,0.9,8.5,1.3c2,0.3,4,0.7,6,0.8c5.3,0.2,10.7,1.8,16-0.3
			c0.3-0.1,1.2,0.1,1.3,0.5c1,2,3.4,3.1,3.5,5.7c0,0.3,0.3,0.7,0.2,0.9c-1.8,3.9-4.8,6.6-8.8,8.2c-1.2,0.5-2.3,1.1-3.5,1.5
			c-1,0.3-2.1,0.3-3.1,0.4c-0.6,0.1-1.2-0.1-1.8,0.1c-2.4,0.9-4.7,0.7-7.1,0c-1.9-0.6-4.1-0.5-6.1-0.6c-1.9-0.1-3.7-0.2-5.1-1.9
			c-0.5-0.6-2-0.4-2.7-1c-1.9-1.4-3.9-2.8-5.2-4.6c-0.5-0.8-1-2.6-0.4-4c0.2-0.4,0-0.9-0.1-1.3C651.2,499.6,653.9,495.1,656,495.1z"
			/>
		<path class="st0" d="M705.8,688.6c9.1,0.3,17.8,0.5,26.5,0.8c-0.4,2.3-13.7,12.6-16.4,12.7c0.3,0.3,0.6,0.6,0.9,0.9
			c-0.8,0.3-1.7,0.4-2.4,0.9c-3.1,2.1-6.1,4.3-9.2,6.3c-2.3,1.5-4.7,2.7-6.9,4.2c-1.5,1-2.8,2.2-4.2,3.3c-0.4,0.3-0.9,0.6-1.4,0.6
			c-4.4,0.3-8.8,0.6-13.2,0.8c-2.5,0.1-5,0.1-7.5,0c-4-0.1-7.9-0.2-11.9-0.4c-3.7-0.2-7.5-0.6-11.2-0.8c-1.1-0.1-2.2-0.1-3.9-0.2
			c2.4-2,4.3-3.6,6.4-5c0.8-0.5,1.8-0.7,2.7-1c0.8-0.3,1.5-0.8,2.3-1.1c0.7-0.2,1.5-0.3,2.1-0.2c2.6,0.7,5.2,1.6,7.8,2.4
			c3.9,1.2,7.9,1.3,11.9,1.2c0.3,0,0.6-0.1,0.8,0c2.3,2.4,4.9,0.5,7.3,0.3c2.8-0.1,5.7-0.1,8.4-0.9c2.6-0.7,5.5-1.8,7.1-3.7
			c1.5-1.6,3.7-3.3,3.7-6.2c0-1.8,0.4-3.6,0.7-5.4c0.2-1.1,0.9-2,1.1-3.1c0.1-0.7-0.5-1.4-0.7-2.2
			C706.1,691.7,706,690.2,705.8,688.6z"/>
		<path class="st0" d="M687.1,693.6c2,0.9,3.8,1.9,5.6,2.6c2.6,1,2.8,1.8,2.5,4.5c-0.6,5.3-4.6,7.4-8.6,9c-2.4,1-5.3,2-8.2,0.4
			c-0.6-0.3-1.6-0.2-2.2,0.1c-2.6,1.4-5,0.6-7.6-0.4c-1.9-0.7-4-0.9-6-1.3c-1.8-0.3-2.6-1.2-2.4-3.1c0.1-0.6-0.4-1.4-0.7-2
			c-1.2-2.4-3.1-4.4-2.9-7.4c0.2-2.6,2.3-3.8,4.5-2.6c1,0.5,2.2,0.7,3.3,1c3.9,0.9,7.9,1.6,11.9,0.8c1.4-0.3,2.9,0.3,4.3,0
			C683.1,695,685.2,694.2,687.1,693.6z"/>
		<path class="st0" d="M682.7,376.7c0.2-0.6,0.5-1.1,0.5-1.7c0.1-2.1,0-4.1,0-6.2c0-1.1-1-2.1-0.1-3.5c0.4-0.7-0.6-2.2-0.6-3.3
			c0-1.1,1-2.6,0.5-3.1c-1.1-1.4,0.3-2.2,0.3-3.5c1.5,0,3.1,0.2,4.6,0c4.3-0.7,8.7-0.9,13.1-0.8c1.1,0,2.3,0,3.4,0.1
			c1.4,0.1,1.8,1.7,1.1,3.6c-0.5,1.3-0.8,2.6-0.9,3.9c-0.2,3.9-0.2,7.9-0.2,11.8c0,0.1,0,0.3,0,0.4c0.4,3.9,0.3,4.1-3.6,4.2
			c-3.8,0.1-7.6,0.5-11.4,0.3c-2.4-0.1-4.8-1-7.2-1.6C682.5,377.1,682.6,376.9,682.7,376.7z"/>
		<path class="st0" d="M127,482.3c-0.6,1.2-0.9,2.7-1.9,3.4c-1.8,1.4-3.3,3.3-5.9,3.3c-1.2,0-2.3,0.8-3.5,1.1
			c-4.3,1.1-8.6,1.4-13,1.2c-1.4-0.1-2.9,1.1-4.1-0.4c-0.1-0.1-0.4,0-0.5,0.1c-2.5,2.4-4.7-0.3-7.1-0.5c-2.7-0.2-3.8-2.4-5.1-4.3
			c-0.2-0.2-0.4-0.5-0.7-0.6c-2.2-1.1-1.9-3.1-1.6-5c0.5-2.3,1.2-2.4,3.5-2.2c4.2,0.4,8.2,2.3,12.5,1.7c2.6-0.4,5.2-0.5,7.8-0.6
			c1,0,2,0.5,3,0.6c0.6,0.1,1.3,0.1,1.8-0.1c0.8-0.3,1.5-0.9,2.3-1.2c2.8-1,5.6-1.8,8.3-2.8c1.5-0.5,2.5-0.6,2.7,1.5
			C125.7,479.1,126.4,480.6,127,482.3z"/>
		<path class="st0" d="M84,675.9c2.1-1.5,4-2.8,5.8-4.2c2.9,1,6,2.2,9.3,3.1c1.3,0.4,2.7,0.1,4.1,0.1c4.1-0.1,8.2-0.8,12.2-0.3
			c3.6,0.5,5.1-2.1,7.4-3.5c0.8-0.5,1.3-1.9,1.4-2.9c0.1-1.7,1.1-1.8,2.3-2.2c2.8-1,5.6-2.1,8.3-3.1c1.8-0.7,3.5-1.3,5.3-1.9
			c0.9-0.3,2.1,0.1,2.5-1.3c0.1-0.3,0.9-0.4,1.3-0.4c5.8,0.4,11.5,0.9,17.2,1.3c2.5,0.2,4.9,0.4,7.5,1.1c-1.9,0.6-3.7,1.2-5.6,1.7
			c-2,0.5-4.2,0.7-6.2,1.3c-4.9,1.4-9.8,2.6-14.5,4.6c-2.8,1.2-5.7,1.3-8.5,2.2c-2.6,0.8-5.1,1.8-7.7,2.7c-2.8,1-5.7,1.7-8.5,2.9
			c-3.7,1.5-7.5,1.3-11.3,1.1c-4.3-0.2-8.6-0.2-12.8-1.6c-1.3-0.4-2.8-0.1-4.2-0.1C87.6,676.2,85.8,676.1,84,675.9z"/>
		<path class="st0" d="M701.3,382.3c-1.9,1.7-3.4,3.2-5,4.6c-1.6,1.3-3.5,2.5-5.1,3.8c-2.3,1.8-4.5,3.7-6.9,5.5
			c-0.9,0.7-2.1,1.2-3.2,1.3c-3,0.2-6.1,0.2-9.2,0c-4.6-0.2-9.2-0.6-13.8-1c-0.4,0-0.8-0.3-1.8-0.6c1.6-0.9,2.8-1.4,3.9-2.2
			c1.6-1.1,3-2.4,4.5-3.4c3.1-2,6.2-3.8,9.4-5.6c2.1-1.2,4.4-2.3,6.6-3.4c0.7-0.3,1.6-0.3,2.3-0.1c3.3,1.1,6.7,0.9,10.2,0.7
			C695.9,381.8,698.5,382.1,701.3,382.3z"/>
		<path class="st0" d="M109,476.2c-3.9,0-7.8-0.2-11.7,0.1c-5,0.3-9.5-0.9-13.8-3.1c-1-0.5-1.7-2-2-3.1c-0.4-2.2-0.4-4.5-0.4-6.8
			c0-0.4,1-1,1.6-1.1c3.9-0.6,7.6,0.2,11.4,0.8c2.4,0.4,4.8,0,7.3,0c2.3-0.1,4.7-0.3,7-0.2c2,0.1,2.9,3,1.8,4.8
			c-0.4,0.7-0.3,1.7-0.5,2.6c-0.3,1.7,0.6,3.6-1,5.1c0,0,0.2,0.3,0.3,0.4C109.1,475.8,109,476,109,476.2z"/>
		<path class="st0" d="M678.4,478.7c0,3,0,5.6,0,8.3c0,2.6,0,5.2,0.1,8.4c-3-0.3-5.8-0.4-8.6-0.8c-3.1-0.4-6.2-0.9-9.2-1.7
			c-4.4-1.1-5.1-1.3-5.1-6.2c0-1.4,0.1-2.8,0-4.2c-0.1-0.7-0.6-1.4-0.8-2.2c-0.1-0.7-0.1-1.5,0.1-2.2c0.1-0.3,0.8-0.5,1.2-0.5
			c6.6,0.1,13.1,0.3,19.7,0.5C676.6,478.2,677.5,478.5,678.4,478.7z"/>
		<path class="st0" d="M131.5,348.5c4.8,0,9.5,0,14,0c0,7,0,13.8,0,20.5c0,1.4-0.8,1.6-1.9,1.6c-4.5-0.2-8.9-0.3-13.4-0.4
			c-1.5-0.1-2.3-1.8-1.9-3.5c0.4-1.5,0.5-3,0.8-4.4c0.3-1.1,0.8-2.2,1-3.4c0.2-1.4,0-2.9,0.2-4.4c0.2-1-0.9-2.5,1.1-3.1
			C131.6,351.3,131.4,349.8,131.5,348.5z"/>
		<path class="st0" d="M138.7,377.5c-2.3,0.9-5.1,2-7.8,3.2c-3.9,1.6-7.7,3.3-11.5,5c-3.4,1.4-6.8,2.9-10.3,4.2
			c-0.8,0.3-1.9-0.2-2.8-0.3c-0.9-0.1-1.8-0.4-2.6-0.4c-1.8,0-3.6,0.3-5.4,0.3c-2.1,0.1-4.1,0-6.2,0c-0.1-0.2-0.2-0.4-0.3-0.6
			c1.1-0.8,2.2-1.7,3.4-2.2c6.4-3,12.8-5.8,19.2-8.9c2.2-1,4.2-2.6,6.4-3.7c1.3-0.6,2.9-0.9,4.4-1c1.6-0.1,3.3,0.2,4.9,0.3
			c2.7,0.2,5.4,0.3,8.2,0.4c0.6,0,1.1,0.3,1.6,0.5c-0.2,0.5-0.4,1-0.6,1.5C139,376.3,138.9,376.7,138.7,377.5z"/>
		<path class="st0" d="M140.5,152.2c1-1.9,1.8-3.5,2.7-5.2c-0.1,0-0.1-0.1-0.2-0.1c0.1-0.5,0.4-1.1,0.4-1.6c0-0.6-0.2-1.2-0.4-2.3
			c1.4-1.6,3.8-0.7,5.8-0.7c2.7-0.1,5.3-0.3,7.8-1.3c0.5-0.2,1.1-0.4,1.5-0.2c3.5,1.7,7.1,0.3,10.6,0.5c1.1,0.1,2.1,0.3,3.5,0.5
			c-0.5,0.7-0.8,1-1,1.3c0.2,0,0.3,0,0.5-0.1c0.3,3,0.6,5.9,1,9.3c-1.1,0.3-2.7,0.9-4.3,1c-2.7,0.2-5.4,0.2-8.1,0.1
			c-2.7-0.1-5.3-0.3-8-0.4c-2.3-0.1-4.5,0-6.8-0.2C143.8,152.8,142.2,152.5,140.5,152.2z"/>
		<path class="st0" d="M722.9,142c-11.9,0-23.3,0-35.4,0c1-1.1,1.7-1.7,2.3-2.5c0.8-1.1,1.9-1.9,1.8-3.5c0-2.3,1-2.6,3.4-2.3
			c2.3,0.3,4.8,0.2,7.2,0c3.3-0.1,6.5-0.6,9.8-0.6c2.6-0.1,5.2,0.2,7.7,0.4c0.7,0.1,1.5,0.4,2.1,0.8c0.9,0.6,0.2,1.1,0,1.8
			c-0.3,0.9,0.5,2.1,0.7,3.1C722.7,140.1,722.8,140.9,722.9,142z"/>
		<path class="st0" d="M681.4,494.7c0.3-1.1,0.5-1.8,0.6-2.4c0.1-1.8,0.1-3.6,0-5.4c-0.1-1.2-0.6-2.4-0.5-3.6c0.1-2,0.4-4,1-5.8
			c0.3-0.8,1.8-1.3,2.8-1.7c1.3-0.6,2.7-1,4-1.5c1.4-0.5,2.8-0.9,4.2-1.3c1.1-0.4,1.7-0.1,1.7,1.2c-0.1,1.9,0,3.8-1.1,5.6
			c-0.4,0.7,0.6,1.9,0.6,3c0.2,2.5,0.5,5,0.3,7.4c-0.1,0.9-1.4,1.8-2.3,2.4c-2.7,1.8-5.5,3.4-9,2.8
			C682.9,495.3,682.1,494.9,681.4,494.7z"/>
		<path class="st0" d="M92.8,660.7c1.8,0.2,3.3,0.3,4.7,0.6c2.4,0.5,4.8,1.3,7.2,1.5c1.7,0.1,3.6-0.5,5.3-1c1.8-0.6,3.9-0.7,5.2-2.6
			c0.2-0.3,2.2,0,2.7,0.6c0.6,0.7,2.1,1.4,1.3,2.9c-0.2,0.3,0.3,1,0.5,1.4c1.1,2.1-0.1,4.4-2.5,4.4c-2.9-0.1-5.6,0.7-8.3,1.7
			c-5,1.8-10,2.1-14.7-0.5c-1.4-0.8-3.9-0.9-3.5-3.6c0.1-0.6,0.4-1.2,0.8-1.6C92.6,663.7,93.5,662.8,92.8,660.7z"/>
		<path class="st0" d="M121.5,462.2c1.4,0,2.7,0,4.1,0c2.3,0,3,0.8,2.7,3.3c-0.1,1,0.1,2.1,0.2,3.1c0.1,1-2.5,4.2-3.5,4.4
			c-0.1,0-0.3,0-0.4,0c-2.6-1.4-4.6,0.1-6.8,1.1c-1.3,0.6-2.7,1-4.1,1.4c-0.8,0.3-1.7,0.1-1.3-1c0.8-2.5,1.2-5.1,1.1-7.8
			c-0.1-3.2,0.2-3.4,3.5-3.8c0.7-0.1,1.5-0.3,2.2-0.4C119.9,462.3,120.7,462.2,121.5,462.2C121.5,462.1,121.5,462.2,121.5,462.2z"/>
		<path class="st0" d="M164.9,315.3c-2.5-1.3-0.2-3,0.3-3.6c1.3-1.7,3-3.4,5.7-3.5c0,2.4,0,4.6,0,6.9c0,3.6,0,7.1,0,10.7
			c0,2.6-0.3,2.7-3,2.6c-2-0.1-4.1,0.3-6.1,0.4c-0.5,0-1.1-0.3-1.7-0.5c0.2-0.5,0.4-1.1,0.6-1.5c0.6-1.1,1.4-2.2,1.7-3.4
			c0.7-2.2,1.1-4.4,1.7-6.6C164.3,316.2,164.7,315.8,164.9,315.3z"/>
		<path class="st0" d="M707.9,334.8c0.8-1.9,0.9-3.5,1.9-4.3c1-0.9,0.8-2,0.9-2.7c0.1-2.8,2.1-4.1,3.9-5.5c1.9-1.5,3.9-2.8,6.2-4.4
			c0.3,1.7,0.6,3.1,0.7,4.4c0.1,2.6,0.1,5.1,0.2,7.7c0,1.3,0,2.1-1.8,2.3c-2.6,0.4-5.1,1.4-7.7,2C711,334.6,709.8,334.6,707.9,334.8
			z"/>
	</g>
</g>
<g>
	<path class="st1" d="M160.2,388.2c-0.8,0.8-1.8,1.5-2.5,2.3c-1.2,1.4-2.4,2.9-3.4,4.4c-0.2,0.3,0,0.9,0,1.4
		c0.1,0.7,0.3,1.4,0.2,2.3c2.2,1.2,4.2,3.2,7.4,1.7c0.7-0.3,1.9,0.3,3-0.2c2.9-1.1,5.3-2.8,7.5-4.9c1.1-1.1,2.8-1.5,4.7-2.5
		c-0.2,0.9-0.2,1.5-0.4,2c-0.5,1.5-0.5,2.8,0.2,4.3c1,2,2.8,2.8,4.7,1.9c2.4-1.1,4.9-2.1,7.2-3.2c1.1-0.5,2.2-1.3,3.3-1.9
		c1.5-0.7,2.9-1.6,4.5-1.9c2.3-0.4,2.7-2.7,4.4-3.7c0.4-0.3,0.8-0.8,1.2-0.8c3.9-0.1,7.9,0,12.3,0c-0.4,1-0.4,1.5-0.7,1.8
		c-1.7,1.8-3,3.7-2,6.4c0.2,0.7,0.3,1.6,0,2.2c-0.7,1.6,0.5,2.2,1.3,2.2c1.6,0.1,3.3-0.1,4.7-0.7c3.5-1.4,6.9-3.2,10.3-4.8
		c1,2.4,1.9,4.6,2.8,6.8c2.5-0.3,5-0.4,7.3-1c2.1-0.6,4-1.9,5.9-2.9c1.4-0.7,2.7-1.6,4.2-2.3c0.5-0.2,1.1,0,2,0
		c-0.5,1.3-1,2.2-1.4,3.2c-0.4,1,1.6,3.4,2.9,3.2c3.2-0.6,6.6-1,9.7-2.1c1.9-0.7,3.8-1.7,5.6-3c1.9-1.4,2.9-3.5,4.7-4.7
		c0.7-0.5,1.6-0.9,2.5-0.9c2.9,0,5.8,0.1,8.7,0.4c3.9,0.3,7.9,0.8,12,1.2c-1.4,1.5-2.7,2.8-3.8,4.1c-1.3,1.5,0,5.9,1.9,6.2
		c1.5,0.3,3.2,0,4.8,0c0.8,0,1.7-0.1,2.4-0.5c1.8-1,3.4-2.1,5.1-3.2c0.4-0.2,0.7-0.7,1.1-0.8c1.7-0.5,3.5-0.8,5.5-1.3
		c-0.6,1.4-1.1,2.7-1.7,4.1c0.4,0.7,0.9,1.5,1.2,2.1c1.3,0.6,2.7,0.9,3.7,1.6c2.5,2,4.6,0.2,6.7-0.6c1.7-0.7,3-2.4,4.7-3.4
		c2.2-1.2,4.6-2.1,6.8-3.3c1.9-0.9,4.3-1.6,5.3-3.1c1.1-1.7,2.2-1.7,3.7-1.7c1.5,0,3,0,4.6,0c2.6,0.1,5.2,0.2,7.8,0.4
		c0.5,0,1,0.6,1.4,1c-0.3,0.3-0.6,0.7-1,1c-1.6,1-2.3,2.8-1.8,4.8c0.2,0.8,0,1.6,0.1,2.4c0.1,0.9,0.5,1.8,0.8,3.1
		c-2,2.9-3.2,3.3-7.1,2.6c-2-0.4-4.2-0.3-6.9-0.5c1.7-1.1,2.8-2.1,4.1-2.6c1.4-0.6,0.6-1.9,1-2.7c-0.8-0.1-1.6-0.4-2.2-0.2
		c-2.5,1.1-5.2,2-7.3,3.7c-2.4,1.9-4.9,1.2-7.8,1.5c0.4-1,0.7-1.7,1-2.5c-1.3-2-2.8-1-4.5,0c-1.6,0.9-3.5,1.9-5.3,2
		c-7.8,0.1-15.7-0.1-23.5-0.3c-3.3-0.1-6.6-0.3-10-0.4c-4.5-0.2-9-0.3-13.4-0.5c-0.7,0-1.5-0.3-2.4-0.6c0.8-0.7,1.4-1.5,2.1-2
		c1.9-1,3.9-1.9,5.8-2.8c1.6-0.8,3.2-1.4,4.6-2.4c0.4-0.3,0.3-1.6,0.1-2.3c-0.1-0.2-1.3-0.4-1.8-0.2c-3.6,1.6-7.1,3.3-10.6,5.2
		c-1.5,0.8-3,1.8-4.3,3c-1.5,1.5-3.1,1.8-5.1,1.8c-3.1,0-6.2,0.2-9.3,0.1c-1.5,0-2.9-0.5-4.4-0.5c-3.5-0.1-7,0-10.5-0.1
		c-2.3,0-4.7-0.3-7-0.4c-2.6-0.1-5.3-0.3-7.5-0.4c-0.8-1.4-1.3-2.4-2-3.6c-1.4,0.8-2.8,1.6-4.2,2.4c-2.7,1.7-5.6,0.2-8.3,0.3
		c-2.4,0.1-4.8-0.2-7.2-0.3c-0.8,0-1.6,0-2.4-0.4c3.5-2.1,7.1-4.2,10.7-6.4c-2.1-2.5-3.8-1.1-5.4-0.4c-2.8,1.4-5.6,2.8-8.4,4.2
		c-0.9,0.5-1.8,0.9-2.7,1.3c-0.9,0.3-1.9,0.8-2.8,0.8c-3.2,0-6.4-0.3-9.6-0.3c-4.1-0.1-8.2,0.1-12.3-0.1c-3.4-0.1-6.7-0.7-10.1-1
		c-0.9-0.1-1.9,0.2-2.9,0.2c-6.8,0-13.6,0-20.5,0c-0.1-0.3-0.2-0.6-0.3-0.9c0.6-0.5,1.2-1.1,2-1.5c2.7-1.3,5.5-2.4,8.2-3.6
		c0.8-0.4,1.3-1.3,2-1.6c4.3-2.2,8.6-4.3,12.9-6.4C159.2,388.4,159.7,388.4,160.2,388.2C160.2,388.3,160.2,388.2,160.2,388.2z"/>
	<path class="st1" d="M438.1,398.8c-3.2,1.2-4.7,3.4-4.4,6.7c0.1,1.1-0.1,2.3,0.1,3.4c0.1,0.7,0.7,1.6,1.3,1.8
		c0.6,0.2,1.5-0.3,2.2-0.6c0.7-0.3,1.3-0.8,2-1.2c2.7-1.3,5.4-2.6,8.1-3.8c0.9-0.4,2-0.5,2.6-0.7c0.9,2.5,1.7,4.9,2.7,7.7
		c-3.7,0-7.5,0-11.2,0c-3.7,0-7.4-0.5-11.1-0.2c-4.2,0.3-8.4,0.7-12.6-0.2c-0.1,0-0.2-0.1-0.6-0.5c2-1.3,3.9-2.4,5.8-3.7
		c1.3-0.9,2.6-1.7,3.6-2.9c0.5-0.5,0.1-1.8,0.1-3c-0.9,0.2-1.6,0.3-2.1,0.6c-4.2,2.8-8.3,5.7-12.5,8.5c-0.7,0.4-1.6,0.6-2.4,0.6
		c-2.7,0.1-5.4,0.1-8,0c-5.2-0.2-10.4-0.6-15.6-0.7c-3.9-0.1-7.8,0.3-11.6,0.3c-2,0-4.1-0.2-6.1-0.4c-3.3-0.2-6.5-0.4-10.5-0.6
		c1.5-1.3,2.7-2.4,3.9-3.5c1.4-1.3,2.6-2.9,4.2-3.8c1.5-0.9,3.1-1.4,4.5-2.5c1.3-1.1,3.4-1.2,5.1-1.8c0.1,0.1,0.2,0.3,0.3,0.4
		c-0.4,0.3-0.9,0.6-1.3,1c-1.4,1.2-3,2.3-3.1,4.4c-0.1,2.7,1.1,3.2,3.7,3c3.8-0.3,7.3-1.5,10.6-3.2c3.2-1.6,6.4-3.3,8.8-6.2
		c1.2-1.4,2.9-1.1,4.3-0.3c-1.7,1.7-3.4,3.3-5,4.9c-1.3,1.3-1.9,3.1-0.7,4.5c1,1.2,2.9,2.5,4.2,2.4c5-0.7,9.6-2.5,13.7-5.6
		c2.4-1.8,4.8-3.7,7.3-5.4c0.8-0.5,1.9-0.8,2.8-0.9c3-0.2,5.9-0.5,8.9-0.4c2.4,0.1,4.8,0.5,7.2,0.9
		C437.4,398,437.7,398.4,438.1,398.8z"/>
	<path class="st1" d="M590.6,403.1c-2.5,3.2-4.8,6.2-7.3,9.4c1.5,1.3,2.8,2.3,4.1,3.4c-4.5,0-8.6,0-13.4,0c3.1-3.1,5.9-5.8,8.7-8.6
		c-2.5-1.4-2.5-1.3-4.1,0c-2.7,2.2-5.4,4.3-8.2,6.4c-1.5,1.1-3,1.9-5,1.8c-2.9-0.1-5.7,0-8.5-1.1c-1.6-0.6-3.7-0.1-5.5-0.1
		c0-0.4-0.1-0.7,0-0.8c2.5-1.6,4.7-3.7,7.8-4.6c2.2-0.6,4.1-2.1,6.1-3.1c1.5-0.8,3.4-0.8,4.4-2.8c0.4-0.8,2.2-1.1,3.4-1.1
		c5.1,0.2,10.2,0.6,15.4,0.9C589.2,402.8,590,403,590.6,403.1z"/>
	<path class="st1" d="M504,400.8c-1.9,1.4-3.7,2.7-5.4,4.1c-0.6,0.5,0,5.9,1,7.1c-3.2,0.3-6,0.5-8.9,0.7c0-0.2,0-0.4-0.1-0.6
		c2-1.5,4-3,5.9-4.6c0.5-0.4,0.8-1.8,0.5-2.3c-0.5-0.7-1.4-1.3-2.6-0.4c-3.3,2.6-6.8,5-10.2,7.6c-0.3,0.2-0.6,0.6-0.9,0.6
		c-2.7,0-5.4-0.1-8.2-0.2c-0.5,0-0.9-0.3-1.6-0.5c1.7-1.4,3.2-2.6,4.6-4c0.5-0.4,0.6-1.2,0.9-1.8c-0.9-0.2-2.1-0.9-2.8-0.5
		c-2.3,1.2-4.5,2.6-6.5,4.3c-1.4,1.2-2.8,2.1-4.7,2.1c-1.6,0-3.1,0-4.7,0c0-0.2-0.1-0.5-0.1-0.7c3.5-2.1,7-4.2,10.6-6.2
		c1.3-0.7,2.9-0.7,4.3-1.2c0.6-0.2,1.1-0.9,1.7-1.4c0.4-0.3,0.6-0.8,1.1-1c2.4-1.3,5-2.3,7.7-2.2c5.8,0.2,11.6,0.5,17.4,0.8
		C503.4,400.3,503.8,400.7,504,400.8z"/>
	<path class="st1" d="M354.2,421c0.2-2,0.8-3.8,0.5-5.5c-0.2-1.4,0.4-1.9,1.2-1.9c3.3-0.1,6.6,0.1,9.9,0.2c2.8,0,5.6,0,8.4,0
		c2.8,0,5.5,0.2,8.3,0.2c3.5,0.1,7.1,0.1,10.6,0.2c1.7,0,2.2,1,2.1,2.5c0,0.1-0.1,0.2-0.1,0.4c-0.3,1.3-0.3,3.3-1,3.6
		c-1.6,0.6-3.5,0.4-5.3,0.5c-2,0.1-4.1,0.2-6.1,0.3c-1.7,0-3.3,0-5,0c-3-0.1-6-0.3-9-0.3C363.7,421,358.8,421,354.2,421z"/>
	<path class="st1" d="M431.2,422.8c0.2-2.3,0.1-4.2,0.6-6c0.4-1.4,1.8-1.9,3.3-1.8c2.7,0.1,5.4,0.3,8.1,0.4c3.7,0.1,7.4,0,11.1,0
		c3.2,0.1,6.5,0.2,9.7,0.4c0.9,0.1,1.8,0.1,1.6,1.7c-0.2,2,0.4,4,0.7,6.5C454.5,423.6,443,423.2,431.2,422.8z"/>
	<path class="st1" d="M516.9,424.6c-0.4-2.9-0.7-5.1-1-7.9c1.1-1.1,3.1-0.6,4.7-0.5c3.6,0.2,7.3,0.7,10.9,0.9c1.6,0.1,3.3-0.1,5-0.1
		c3.2,0.1,6.4,0.1,9.6,0.4c1.6,0.2,3,0.8,2.8,3c-0.1,0.9,0.5,1.9,0.7,2.8c0.2,1-0.1,1.7-1.3,1.7c-2.2,0-4.4,0-6.6,0
		c-2.8,0-5.6,0.3-8.2-0.1c-2.4-0.4-4.8-0.3-7.2-0.3C523.3,424.6,520.2,424.6,516.9,424.6z"/>
	<path class="st1" d="M513.9,424.2c-1.7,0-3.4,0-5.1,0c-3.1,0.1-6.1,0.1-9.2,0.2c-3.7,0.1-7.4,0.2-11.1,0.3c-1.3,0-2.5-0.2-3.8-0.2
		c-1.2,0-1.6-0.7-1.4-1.7c0.3-1.5,0.8-3,1.2-4.6c0.3-1.4,0.9-2.3,2.7-2.3c4.4,0.1,8.9,0,13.3,0c3.4,0,6.9,0,10.3,0
		c1.2,0,1.7,0.4,1.7,1.6c0.1,1.5,0.9,2.8,0.5,4.4c-0.1,0.3,0.6,0.8,1,1.3C513.9,423.7,513.9,424,513.9,424.2z"/>
	<path class="st1" d="M157.8,414c0.1-1.9,0.4-3.6,0.3-5.3c-0.1-1.9,1.1-2.2,2.3-2.2c3.7-0.1,7.3,0.1,11,0.2c2.9,0.1,3.1,0.4,3.2,3.2
		c0.1,1.4,0.6,2.7,0.6,4c0,0.4-1.1,1.2-1.8,1.1c-5.3,0-10.6-0.2-15.9-0.3c-4.3-0.1-8.6-0.2-12.9-0.5c-0.4,0-1.2-0.8-1.2-1.3
		c-0.2-1.5,0-3.1-0.1-4.7c-0.1-1.3,0.8-1.9,1.8-1.9c2.9,0,5.9,0.1,8.8,0.3c0.4,0,0.9,0.5,1,0.8c0.2,1.3,0.5,2.6,0.4,3.9
		C155.3,412.9,156.1,413.4,157.8,414z"/>
	<path class="st1" d="M297.8,411.7c0.2,2.5,0.4,4.8,0.5,7.3c-2.2,0-4.2,0-6.1,0c-5-0.1-9.9-0.2-14.9-0.4c-3-0.1-5.9-0.2-8.9-0.5
		c-0.5,0-1.3-0.8-1.4-1.4c-0.2-1.8-0.1-3.7-0.1-5.9C277.2,411.1,287.4,411.4,297.8,411.7z"/>
	<path class="st1" d="M243.8,410.2c0.6,2.3,1,4.2,1.6,6.5c-1.7-0.1-3.3-0.2-4.9-0.3c-1.6-0.1-3.2-0.1-4.8-0.2
		c-3.4-0.1-6.9-0.3-10.3-0.4c-3.7-0.1-7.3,0.1-11-0.1c-1.2,0-2.9,0.3-3.4-1.5c-0.8-2.5-0.4-2.8,1.8-4.3c2.7-1.8,5.5-0.7,8.3-0.9
		c1.1-0.1,2.3,0.2,3.4,0.3c4.4,0.3,8.8,0.6,13.2,0.8C239.8,410.2,241.9,410.2,243.8,410.2z"/>
	<path class="st1" d="M573.1,425.7c-0.7-2.3-1.3-4.1-1.8-5.9c4.2-1.5,8.1-0.6,12-0.4c1.5,0.1,3.1,0,4.6,0c1.1,0,2.2,0.3,3.3,0.4
		c3.1,0.3,6.2,0.6,9.3,0.8c1.6,0.1,2.5,0.4,2.3,2.3c-0.1,0.7,0.5,1.3,0.6,2c0,0.3-0.4,1-0.7,1.1c-1,0.2-2.1,0.3-3.2,0.3
		c-4.2-0.1-8.3-0.4-12.5-0.5C582.4,425.6,577.7,425.7,573.1,425.7z"/>
	<path class="st1" d="M334.2,412.9c2.9,0.2,5.7,0.4,8.5,0.5c2.6,0.1,5.2,0,7.9,0c0.8,0,1.5-0.1,1.3,1.2c-0.2,1.1,0.1,2.3,0.3,3.5
		c0.1,0.9,0.4,1.8,0.6,2.7c-6,0-12.2,0-18.6,0c-0.2-1.6-0.4-2.7-0.4-3.9C333.8,415.7,334.1,414.5,334.2,412.9z"/>
	<path class="st1" d="M626.1,418.6c-3.4-0.2-7.3-0.4-11.3-0.6c0.1-0.5,0.1-1,0.4-1.1c1.6-1.1,3.3-2.2,5-3.1
		c4.6-2.3,9.5-4.3,13.5-7.7c0.1-0.1,0.3-0.3,0.3-0.4c0.3-2.4,2.1-2,3.6-1.9c1,0,1.9,0.3,2.8,0.5c-0.2,2.1-2,2.8-3.6,3.9
		c-3,2.1-5.9,4.3-8.7,6.7C627.3,415.7,626.9,417.1,626.1,418.6z"/>
	<path class="st1" d="M316.1,420.1c-3.1-0.4-5.6-0.7-8-0.9c-1.6-0.1-3.3-0.2-5-0.1c-1.6,0.2-2.4-0.6-2.2-2.1c0.1-1.2,0-2.4,0-3.6
		c0-1.9,1.3-2.1,2.8-2c3,0.2,6,0.3,9,0.4c0.6,0,1.2-0.1,1.8,0c1.2,0.2,2.1,0.6,1.8,2.3c-0.3,1.5-0.8,3.2,0.6,4.6
		C317,418.9,316.3,419.9,316.1,420.1z"/>
	<path class="st1" d="M246.3,416.9c0.5-1.1,0.9-1.9,1.3-2.8c0.1-0.3,0.2-0.7,0.1-0.9c-0.6-1.2,0.3-2.9,1.6-2.9
		c3.1,0,6.2-0.1,9.3-0.1c0.6,0,1.2,0,1.8,0c2.9,0.2,3,0.4,3.2,3.2c0.1,1.3,0.7,2.6,1.3,4.5C258.6,417.6,252.7,417.3,246.3,416.9z"/>
	<path class="st1" d="M552.7,418c5.1,0.4,10.1,0.8,15.3,1.2c0.2,0.8,0.5,1.7,0.8,2.6c-0.1,0-0.2,0-0.3,0.1c0.3,1.1,0.7,2.1,1.2,3.5
		c-3.6,0-6.8,0-10,0c-2.2,0-4.4,0-6.6,0c-1.5,0-1.6-0.5-0.9-1.8c0.1-0.1,0.2-0.3,0.2-0.4C550.6,421.4,552,419.8,552.7,418z"/>
	<path class="st1" d="M627,427.9c-3.4-0.2-6.4-0.3-9.4-0.5c-2.3-0.1-4.7-0.3-7-0.4c-0.6,0-1.3-0.1-1.9-0.3c-1.9-0.6-3.2-3.3-2.1-4.9
		c0.5-0.7,2-0.8,3-0.7c2.4,0.1,4.9,0.5,7.3,0.7c2.7,0.3,5.5,0.5,8.2,0.9c0.8,0.1,1.7,0.4,1.4,1.8C626.4,425.4,626.8,426.5,627,427.9
		z"/>
	<path class="st1" d="M191.1,408.3c0,2.5,0,4.7,0,7c-4.4,0-8.5,0-13.2,0c0-2.9,0-5.4,0-8.3c1.7,0,3.1,0,4.6,0c2.2,0,4.4,0,6.6,0.2
		C189.9,407.3,190.7,408,191.1,408.3z"/>
	<path class="st1" d="M414,418.5c0.2-1.2,0.4-2.3,0.6-3.5c3.8,0,7.5,0.1,11.3,0c2.4-0.1,2.5,0.3,2.1,2.6c-0.2,1.1,0.5,2.5,0.8,3.8
		c-1.5,2-3.8,0.8-5.7,0.9c-2.5,0.2-5-0.2-7.4-0.6c-0.7-0.1-1.4-0.8-1.9-1.5c-0.2-0.3,0.2-1.1,0.4-1.6C414,418.6,414,418.5,414,418.5
		z"/>
	<path class="st1" d="M471.6,416c2.3,0,5,0,7.8,0c1.5,0,2.3,1.5,1.7,3c-0.3,0.7-0.6,1.4-0.6,2.1c-0.1,2.9-1.1,3.8-4,3.9
		c-1.9,0-3.7-0.9-5.7,0c-0.3,0.1-1.9-1.5-2.2-2.6c-0.4-1.5,0-3.2,0-4.8C468.6,415.6,469.8,415.6,471.6,416z"/>
	<path class="st1" d="M207,408.7c0.3,1.8,0.6,3.5,0.8,5.2c0.1,1-0.3,1.6-1.4,1.6c-3.6,0-7.2,0-10.9,0c-1.3,0-1.8-0.5-1.7-1.8
		c0.1-1,0-2.1,0.1-3.1c0.2-1.9,1.4-2.8,3.7-2.6C200.6,408.2,203.7,408.4,207,408.7z"/>
	<path class="st1" d="M128.9,406.3c4.2,0,7.9,0,11.1,0c0.3,2.9,0.6,5.3,0.9,8c-3.3,0-6.6,0.1-9.8-0.1c-0.7,0-1.8-1.2-1.9-2
		C128.8,410.1,128.9,408,128.9,406.3z"/>
	<path class="st1" d="M591.7,415.3c1.5-0.8,2.8-1.4,4-2.1c3-1.9,6.1-3.7,9.7-4.2c1.1-0.1,1-0.1,1.2,1.1c0.5,2.3,1.2,4.6,1.8,6.9
		C606.8,418.2,594,417.1,591.7,415.3z"/>
	<path class="st1" d="M330.5,420.4c-4.1,0-7.8,0-11.3,0c0.2-2.9,0.4-5.2,0.6-8.1c2.1,0,4.4,0,6.6,0c0.3,0,0.5,0.2,0.8,0.2
		c3.6,0.5,3.5,0.5,3.3,4C330.5,418,330.5,419.4,330.5,420.4z"/>
	<path class="st1" d="M411,421.6c-4.3-0.2-8.3-0.4-12.3-0.6c-0.3,0-0.9-0.4-0.9-0.6c0.1-1.7,0.2-3.5,0.5-5.2
		c0.1-0.4,1.1-0.9,1.6-0.8c2.9,0,5.8,0.1,8.6,0.4c0.7,0.1,1.7,1,1.9,1.6C410.9,417.9,410.9,419.6,411,421.6z"/>
	<path class="st1" d="M643.6,407.4c-0.4,1.6-1.1,3.2-1.3,4.8c-0.1,1.3-0.4,2.9,1.2,3.6c0.7,0.3,1.5,0.2,2.3,0.3c0.7,3-0.1,3-3.2,2.8
		c-3.2-0.1-6.4,0-9.6,0c-1.1,0-2.2-0.3-3.7-0.5c1-0.8,1.7-1.5,2.4-2c3-2.3,5.9-4.6,8.9-6.9C641.6,408.8,642.6,408.1,643.6,407.4
		L643.6,407.4z"/>
	<path class="st1" d="M642.2,423.2c0.7,4.5,0.6,4.6-3.8,4.6c-2.1,0-4.2,0.2-6.4,0.4c-1.3,0.1-2.4-0.2-2.4-1.8c0-1.5-0.1-3.1,2-3.4
		c1.1-0.2,2.2-0.7,3.2-0.7c1.6,0,3.2,0.2,4.8,0.4C640.5,422.7,641.4,423,642.2,423.2z"/>
	<path class="st1" d="M522.4,412.1c-5.3,1.7-10.7,0.3-16.1,0.3c3.8-3.2,8.5-3.9,13.1-5.8c0.3,1.3,0.6,2.6,0.9,3.8
		c0.7,0.3,1.5,0.7,2.3,1.1C522.5,411.6,522.5,411.9,522.4,412.1z"/>
	<path class="st1" d="M542.1,406.5c-0.1,1.9-0.9,3.8-0.2,5c0.6,1.2,2.7,1.6,3.7,2.1c-4.8,0-10.3,0-15.7,0c-0.1-0.2-0.1-0.5-0.2-0.7
		C533.9,410.8,538.2,408.6,542.1,406.5z"/>
</g>
<g>
	<path class="st1" d="M396.4,710.1c0.3-0.3,0.5-0.6,0.9-0.8c3-1.7,5.4-4.1,7.7-6.7c0.9-1,2-1.7,2.8-2.8c1.6-2.3,3.7-4.2,4.9-7.1
		c1.9-4.4,5.9-8,11.8-6.4c1.3,0.4,2.7,0.4,4.1,0.5c2.1,0.2,4.2,0.2,6.8,0.4c-1.2,2.5-2.2,4.6-3.3,6.7c-0.5,0.9-1.2,1.6-1.8,2.4
		c-1,1.3-1.9,2.7-2.9,4c-1,1.2-2,2.4-3.2,3.5c-1.7,1.5-3.5,2.8-5.2,4.3c-4,3.4-8.7,2.4-13.2,2.2c-2.4-0.1-4.7,0-7.1,0
		c-0.6,0-1.3,0.1-1.9,0.2C396.6,710.4,396.5,710.2,396.4,710.1z"/>
	<path class="st1" d="M358.2,707.4c2.4-1.7,4.4-3,6.4-4.3c1.6-1.1,3.3-2.2,4.9-3.4c0.9-0.7,1.7-1.5,2.5-2.3c1.5-1.5,3-2.9,4.4-4.5
		c1.7-1.9,3.4-3.9,5.1-5.8c0.5-0.6,1-1.1,2.3-0.8c1.5,0.4,3.5,0.5,4.9-0.2c1.3-0.7,2.5-0.9,3.8-0.9c2,0,4-0.1,6,0
		c0.6,0,1.6,0.5,1.7,0.9c0.2,0.6-0.2,1.5-0.5,2.1c-0.5,1.1-1.1,2.3-1.9,3.3c-1.3,1.6-2.7,3.2-4.2,4.7c-1.8,1.8-3.6,3.7-5.6,5.3
		c-5.7,4.4-11.6,8.4-19.5,6.6c-2.1-0.5-4.4,0-6.6-0.1C360.7,708,359.7,707.7,358.2,707.4z"/>
	<path class="st1" d="M415.7,713.7c0,2.4,0,4.5,0,6.5c0,0.6-0.4,1.2-0.6,1.8c-0.1,0.4-0.1,0.8-0.2,1.3c-0.1,0.4-0.3,0.7-0.3,1.1
		c-0.1,2.1-0.2,4.1-0.3,6.5c-1.7,0-3.5,0.1-5.3,0c-2.1-0.1-4.2-0.3-6.4-0.4c-4-0.2-8.1-0.2-12.1-0.5c-0.4,0-1.1-0.8-1.1-1.2
		c0-3.8,0.1-7.5,0.4-11.3c0.1-1.1,0.8-2.1,1-3.2c0.3-1.6,1.2-1.5,2.4-1.4c2.5,0.2,5,0.2,7.5,0.3c2.3,0.1,4.6,0.3,6.9,0.4
		C410.2,713.7,412.9,713.7,415.7,713.7z"/>
	<path class="st1" d="M430.1,732.4c0-2.6,0.2-5-0.1-7.4c-0.2-2.1,0-4.2,0-6.4c-0.1-2.3,0.5-4,2.2-5.5c1.9-1.7,3.9-1,5.9-1
		c2.8,0.1,5.6,0.5,8.4,0.7c3.2,0.2,4.4,1.9,3.3,4.8c-0.1,0.3,0.3,0.8,0.2,1.2c-0.2,1.6-0.5,3.2-0.8,4.8c-0.4,2.2-0.8,4.3-1.1,6.5
		c-0.5,3.2-1.1,3.7-4.4,3.1c-3.9-0.7-7.8-1.7-11.8-0.7C431.4,732.7,430.7,732.5,430.1,732.4z"/>
	<path class="st1" d="M374.2,711.8c-0.9,5.6-1.7,10.9-2.6,16.4c-4.9-0.3-9.4-0.6-13.8-0.9c-1.6-0.1-3.2-0.5-4.9-0.8
		c-1.4-0.2-2.1-0.9-2-2.4c0.1-1.6,0.5-3.4-0.1-4.7c-0.9-2.2,0.8-4.1,0.2-6.2c-0.1-0.3,0.6-1.1,1-1.2c1.4-0.4,2.8-0.6,4.1-0.7
		c2.4-0.1,4.8-0.1,7.2,0c3,0.1,6,0.2,8.9,0.4C372.7,711.7,373.1,711.7,374.2,711.8z"/>
	<path class="st1" d="M437.3,709c2.2-2.8,4.2-5.1,5.9-7.7c1.1-1.7,1.5-3.9,2.6-5.6c1.5-2.5,1.8-5.7,4.7-7.3c0.2-0.1,0.1-0.7,0.2-1.1
		c1.4,0,2.6,0,3.9,0c0.6,0,0.5,0,1.1,0.9c0.1,0.2,0.7,0.3,0.9,0.2c1.4-0.9,2.7-0.7,4.1,0c0.5,0.3,1.4-0.1,2.1-0.3
		c0.6-0.2,1.2-0.4,1.4-0.5c0.2,0.9,0.5,1.6,0.3,2.2c-0.3,1.5-0.6,3.2-1.4,4.5c-1.5,2.4-3.4,4.5-5,6.8c-0.4,0.6-0.4,1.7-1,2.1
		c-2.6,2.1-5.3,4.2-8.1,5.9c-1.1,0.6-2.8,0.3-4.3,0.2C442.2,709.3,439.8,709.2,437.3,709z"/>
	<path class="st1" d="M388.5,710.4c-0.7,2.4-1.2,4.7-2,6.8c-0.4,0.9-1.6,1.3-2.4,2c-1.6,1.3-3.1,2.7-4.8,3.9
		c-0.8,0.6-1.8,1.1-3.2,1.9c0.5-3.1-0.5-5.7,1.2-8c0.1-0.1,0.2-0.5,0.1-0.6c-1.4-1.3,0.5-2.5,0.1-3.8c-0.1-0.4,0.8-1.4,1.5-1.7
		c2.7-1.6,6-2.1,8.3-4.4c1.9-1.8,4.1-3.4,6-5.2c2.3-2.2,4.4-4.5,6.4-6.9c0.9-1,1.3-2.4,2.1-3.9c-0.2,0.1,0-0.1,0.1,0
		c2,1,3.9,2.1,5.8,3.2c0.2,0.1,0.3,0.9,0.1,1.1c-2.6,3-5,6.3-8,8.9c-2.4,2.1-5.5,3.5-8.3,5.1C390.4,709.4,389.4,709.9,388.5,710.4z"
		/>
	<path class="st1" d="M418,727.9c0.2-2.7-0.1-5.3,0.6-7.7c0.8-2.4,0.5-4.7,0.7-7.1c0-0.4,0-0.9,0.3-1.1c0.9-0.9,2-1.6,3-2.4
		c1.3-1.1,2.6-2.2,3.8-3.4c0.3-0.3,0.4-1,0.5-1.5c0.1-0.5,0.1-1,0.1-1.5c0.4,0.1,0.8,0.4,1.2,0.3c0.4-0.1,0.7-0.4,1-0.7
		c1.9-2.3,3.9-4.6,5.7-7c0.8-1.1,1.1-2.5,1.8-3.7c0.4-0.8,0.9-1.5,1.5-2.6c1,2.5,1.4,4.7,4.6,5.2c-0.9,1.8-1.6,3.4-2.5,5
		c-1,1.9-2.1,3.6-3.8,5c-0.8,0.6-1.3,1.7-2.2,2.4c-1.5,1.1-3.3,1.9-4.8,3.1c-0.7,0.6-1.3,1.6-1.5,2.5c-0.6,2.1-0.8,4.4-1.3,6.5
		c-0.7,2.6-2,4.8-4.5,6.1C420.7,726,419.5,726.9,418,727.9z"/>
	<path class="st1" d="M648.5,370.7c-0.6-2.6,0.5-4.9,2.5-6.8c2.3-2.2,8.2-3.1,10.8-1.3c2.1,1.5,4.5,2.8,5.8,5.3
		c0.7,1.5,0.1,4.4-1.1,5.5c-3,2.9-6.7,4.5-10.6,5.8c-1,0.3-2.4-0.2-3.5-0.7C648.8,377.2,648.1,374.3,648.5,370.7z"/>
	<path class="st1" d="M177.3,359.1c0.7,2.9,3.5,4.9,2,7.8c-0.8,1.5-2.3,2.7-3.6,3.8c-0.4,0.4-1.2,0.4-1.8,0.6
		c-3.5,1.1-5.5,0.4-7.7-2.6c-1.7-2.3-2.7-4.6-2.5-7.5c0.2-2.6,3.2-5.5,5.7-6.2c2.7-0.7,4.9,0,7.1,1.3
		C177.6,357,177.8,358.6,177.3,359.1z"/>
	<path class="st1" d="M452.8,728.7c-0.3-0.4-0.7-0.7-0.7-0.9c0.3-3.6,0.7-7.1,1.1-10.7c0-0.2,0.4-0.3,0.3-0.2
		c0.2-0.9,0.3-1.5,0.4-2.2c0-0.3-0.1-0.7-0.3-1c-1.2-1.7-1.2-2.9,0.6-3.8c3-1.6,5-4.1,6.9-6.8c1.2-1.8,2.6-3.4,3.9-5.2
		c1.2,2.6,0.6,5.2,0.3,7.8c-0.2,1.3-0.4,2.7-0.5,4.1c0,1.4,0.2,2.9,0.3,4.5C461.3,718.8,457.1,723.6,452.8,728.7z"/>
	<path class="st1" d="M451.7,375c-1.4-0.3-3-0.3-4.4-0.8c-4.9-2-9.2,0-13.6,1.8c-0.8,0.3-1.8,0.4-2.7,0.2c-1.6-0.3-3.2-0.7-4.7-1.2
		c-2.2-0.7-4.4-1.4-6.4-2.5c-1.8-1-3.2-2.2-5.7-1.3c-2.1,0.8-4.8,0-6.9,0.8c-2.7,1.2-5.5,0.8-8.3,1.4c-2.7,0.5-5.3-0.7-7-2.4
		c-2.1-2-4.2-1.7-6.5-1.2c-3,0.6-5.9,1.5-8.9,2.2c-1.7,0.4-2.9-0.5-3-2.1c-0.1-2.7-0.1-5.4,0.1-8.1c0.1-0.9,0.2-2.1,2.1-2.1
		c1.7,0,3.5-0.7,4.9-1.6c2.5-1.7,4.5-0.1,6.6,0.7c1.9,0.7,3.7,2.2,5.7,2.5c2.4,0.5,5,0.2,7.5,0.2c0.2,0,0.5-0.3,0.7-0.5
		c1.6-1.3,3.2-2.7,5-3.7c0.9-0.5,2.5-0.6,3.5-0.1c2.8,1.3,5.5,3,8.3,4.4c0.8,0.4,1.8,0.6,2.6,0.4c1.8-0.5,3.4-1.6,5.2-1.9
		c1.9-0.4,4-0.3,6-0.2c1.8,0.1,3.6,0.4,5.2,1.1c1.4,0.6,2.7,1.7,3.8,2.9c1.4,1.4,2.6,1.9,4.3,0.6c2.8-2.3,6.2-2.6,9.5-3.6
		c1.2-0.3,1.8,0.5,1.9,1.7c0.2,1.1,0.9,2.3,0.6,3.3c-0.5,2.2,0.8,4.2,0.5,6.3c-0.2,1.5-1,2.7-2.8,2.7
		C453.8,374.7,452.8,374.9,451.7,375z"/>
</g>
</svg>
